<?xml version="1.0" standalone="no"?>
<!DOCTYPE svg PUBLIC "-//W3C//DTD SVG 1.1//EN" "http://www.w3.org/Graphics/SVG/1.1/DTD/svg11.dtd" >
<svg xmlns="http://www.w3.org/2000/svg">
<metadata>Generated by IcoMoon</metadata>
<defs>
<font id="icomoon" horiz-adv-x="1024">
<font-face units-per-em="1024" ascent="960" descent="-64" />
<missing-glyph horiz-adv-x="1024" />
<glyph unicode="&#x20;" horiz-adv-x="512" d="" />
<glyph unicode="&#xe900;" glyph-name="cross" d="M611.841 426.389l389.354 393.803c9.362 11.673 15.025 26.663 15.025 42.975 0 38.092-30.879 68.971-68.971 68.971-15.755 0-30.276-5.283-41.889-14.173l0.165 0.122-393.247-393.247-393.803 393.247c-12.527 12.527-29.832 20.275-48.947 20.275-38.23 0-69.222-30.992-69.222-69.222 0-19.115 7.748-36.421 20.275-48.947v0l393.247-393.803-393.247-393.247c-8.769-11.447-14.052-25.969-14.052-41.724 0-38.092 30.879-68.971 68.971-68.971 16.313 0 31.302 5.663 43.111 15.13l-0.136-0.105 393.803 389.354 393.247-389.354c10.766-7.286 24.041-11.632 38.33-11.632 38.092 0 68.971 30.879 68.971 68.971 0 14.289-4.345 27.564-11.787 38.574l0.155-0.244z" />
<glyph unicode="&#xe901;" glyph-name="crown" horiz-adv-x="1087" d="M0 653.827c3.329 17.572 10.852 33 21.491 45.732l-0.128-0.158c14.339 18.203 36.381 29.784 61.127 29.784 8.963 0 17.571-1.519 25.581-4.314l-0.545 0.165c32.336-8.884 56.098-36.984 58.379-70.969l0.013-0.241c0.41-3.13 0.644-6.75 0.644-10.424 0-20.433-7.232-39.176-19.275-53.811l0.117 0.146 187.282-149.541 171.616 341.096c-26.386 13.592-44.384 40.168-45.57 71.055l-0.005 0.155c-0.11 1.556-0.173 3.372-0.173 5.203 0 22.682 9.64 43.112 25.047 57.416l0.049 0.045c15.059 14.414 35.524 23.286 58.062 23.286 24.295 0 46.183-10.311 61.524-26.796l0.047-0.051c12.879-14.876 20.725-34.417 20.725-55.79 0-32.353-17.979-60.506-44.491-75.013l-0.445-0.223 171.616-340.384 183.722 153.814c-5.284 12.944-10.412 28.862-14.435 45.214l-0.519 2.497c-0.565 3.487-0.888 7.506-0.888 11.601 0 27.104 14.152 50.902 35.47 64.41l0.312 0.184c12.973 9.514 29.254 15.224 46.868 15.224 13.309 0 25.856-3.26 36.887-9.025l-0.44 0.209c28.139-13.774 47.174-42.198 47.174-75.068 0-1.9-0.064-3.784-0.189-5.652l0.014 0.253c-2.496-36.974-29.189-67.058-64.261-74.672l-0.54-0.098c-3.423-0.839-7.352-1.32-11.394-1.32s-7.971 0.481-11.734 1.389l0.34-0.069c-9.969 0-13.53 0-15.666-11.394l-51.271-247.811c-4.985-21.363-9.969-43.438-13.53-65.513 0-9.257-6.409-11.394-14.954-10.682h-719.221c-9.969 0-14.242 0-16.378 12.106-20.651 103.255-42.726 206.509-64.089 310.476 0 10.682-5.697 13.53-17.090 12.818-2.315-0.232-5.003-0.365-7.723-0.365-37.761 0-69.553 25.558-79.020 60.319l-0.133 0.574v9.257zM168.768 88.419h750.554v-173.752h-750.554v173.752z" />
<glyph unicode="&#xe902;" glyph-name="user" horiz-adv-x="928" d="M461.692-86.472c-1.191-0.004-2.6-0.007-4.010-0.007-70.869 0-140.319 6.079-207.855 17.744l7.217-1.032c-26.576 8.733-59.068 16.653-92.359 22.217l-4.081 0.563c-38.314 11.237-71.693 26.106-102.541 44.743l1.925-1.079c-21.1 12.193-38.357 28.843-50.904 48.758l-0.353 0.6c0.008 0.372 0.012 0.81 0.012 1.249 0 11.985-3.247 23.212-8.91 32.848l0.166-0.305c0.038 52.733 12.659 102.51 35.022 146.502l-0.85-1.844c21.538 43.497 50.821 80.064 86.377 109.274l0.57 0.454c42.619 12.534 79.694 31.907 111.981 57.125l-0.734-0.552c30.754 9.872 37.968 17.465 50.118 10.631 43.399-9.475 81.62-27.018 114.781-51.104l-0.877 0.607c18.769-2.899 40.42-4.554 62.458-4.554s43.688 1.656 64.835 4.849l-2.377-0.295c36.489 5.57 69.252 17.707 98.413 35.227l-1.214-0.676c9.492 5.695 18.604 12.15 28.096 18.225 0.963 0.33 2.073 0.521 3.227 0.521s2.264-0.191 3.3-0.543l-0.072 0.021c34.843-5.792 66.1-16.521 94.729-31.572l-1.708 0.818c60.717-30.837 109.268-78.167 140.768-136.109l0.853-1.715c17.001-29.808 29.383-64.59 35.094-101.574l0.216-1.699c2.090-13.976 3.459-30.392 3.791-47.063l0.006-0.397c-9.531-13.963-15.312-31.151-15.566-49.674l-0.001-0.064c-14.278-17.169-31.551-31.29-51.1-41.699l-0.916-0.445c-41.417-22.661-89.428-40.52-140.124-51.047l-3.395-0.59c-28.046-6.857-63.281-13.126-99.128-17.405l-4.525-0.44c-45.040-5.927-97.232-9.372-150.206-9.492h-0.148zM464.73 407.113c-0.287-0.001-0.626-0.002-0.965-0.002-39.488 0-76.3 11.461-107.29 31.237l0.805-0.48c-39.353 23.84-71.363 56.093-94.23 94.431l-0.69 1.249c-21.085 32.552-36.281 70.943-43.049 112.172l-0.235 1.732c-2.417 13.020-3.799 28.001-3.799 43.304 0 76.136 34.213 144.281 88.104 189.899l0.364 0.301c32.441 27.211 72.553 46.326 116.64 53.715l1.441 0.2c12.761 2.328 27.446 3.66 42.443 3.66 83.055 0 156.572-40.839 201.565-103.533l0.507-0.743c18.498-25.186 32.445-54.962 39.928-87.216l0.318-1.629c3.994-17.266 6.284-37.092 6.284-57.453 0-35.371-6.91-69.128-19.453-99.995l0.639 1.779c-15.413-41.384-37.722-76.88-65.843-106.86l0.158 0.17c-26.167-28.125-58.603-50.056-95.109-63.61l-1.71-0.556c-19.561-7.455-42.183-11.773-65.813-11.773-0.356 0-0.711 0.001-1.066 0.003h0.055z" />
<glyph unicode="&#xe903;" glyph-name="store" horiz-adv-x="1125" d="M561.928 528.991c-6.702-72.158-66.952-128.208-140.292-128.208s-133.59 56.050-140.25 127.65l-0.042 0.557c-2.765-14.557-6.443-27.29-11.154-39.51l0.523 1.542c-20.931-52.681-71.469-89.248-130.547-89.248-23.459 0-45.572 5.766-64.999 15.958l0.769-0.368c-45.324 23.615-75.739 70.246-75.739 123.98 0 14.28 2.148 28.059 6.139 41.030l-0.261-0.987c31.893 100.995 63.786 201.611 96.439 301.846 10.258 32.53 40.156 55.705 75.468 55.705 2.303 0 4.583-0.099 6.837-0.292l-0.293 0.020h747.592c1.122 0.037 2.44 0.059 3.763 0.059 17.311 0 33.768-3.655 48.642-10.234l-0.769 0.304c18.313-8.957 32.039-24.913 37.837-44.292l0.131-0.511c31.893-99.856 64.546-199.333 95.68-299.568 3.55-11.738 5.594-25.228 5.594-39.195 0-77.376-62.726-140.102-140.102-140.102-44.266 0-83.737 20.529-109.412 52.586l-0.215 0.277c-9.465 12.352-17.093 26.729-22.12 42.276l-0.282 1.008c0 4.176 0 11.77-6.455 11.77s-4.176-7.214-5.316-11.39c-14.563-49.037-54.315-86.136-103.888-96.658l-0.904-0.161c-9.123-2.116-19.6-3.329-30.359-3.329-67.126 0-123.226 47.208-136.912 110.234l-0.168 0.924zM562.308-86.472c-109.728 0-219.456 0-329.184 0 0 0 0 0-0.001 0-72.21 0-130.774 58.43-130.989 130.59v0.020c0 97.578 0 195.156 0 292.734 0 11.39 0 15.947 14.808 13.669 7.184-1.245 15.458-1.956 23.898-1.956 17.565 0 34.41 3.082 50.023 8.735l-1.023-0.324c14.048 4.556 14.428 0 14.428-11.77 0-93.022 0-186.044 0-279.066 0-45.562 3.037-48.599 48.599-48.599h631.41c27.337 0 37.968 12.909 37.968 37.968 0 97.578 0 195.156 0 292.734 0 12.15 2.658 14.808 14.428 10.631 14.474-4.656 31.126-7.34 48.404-7.34 9.050 0 17.928 0.736 26.578 2.152l-0.944-0.128c12.15 2.278 14.808 0 14.808-12.15 0-78.214 0-156.049 0-234.263 0.725-11.97 1.138-25.965 1.138-40.056s-0.413-28.086-1.228-41.973l0.090 1.916c-8.388-64.346-62.861-113.526-128.821-113.526-0.229 0-0.457 0.001-0.686 0.002h0.035c-111.247 0-222.493 0-333.74 0z" />
<glyph unicode="&#xe904;" glyph-name="discount" d="M992.142 367.882c11.496 12.679 22.011 26.694 31.162 41.635l0.696 1.221v31.858c-20.101 24.273-37.926 48.924-60.302 72.059-5.195 4.135-8.495 10.457-8.495 17.55 0 3.698 0.897 7.187 2.486 10.261l-0.059-0.125c6.827 16.687 12.516 34.133 17.825 51.2 3.003 7.41 4.745 16.005 4.745 25.007 0 31.018-20.686 57.203-49.015 65.514l-0.483 0.121c-1.862 1.027-4.023 1.818-6.31 2.254l-0.137 0.022c-25.79 3.413-32.237 18.204-31.479 43.615 1.896 53.096-24.652 81.92-75.852 75.852-5.41-1.379-11.621-2.171-18.017-2.171-36.892 0-67.632 26.337-74.445 61.235l-0.078 0.479c-8.539 27.943-34.097 47.917-64.321 47.917-14.725 0-28.343-4.741-39.41-12.78l0.194 0.134c-22.376-11.757-37.926-12.136-53.476 8.723-10.97 10.942-23.438 20.389-37.069 28.005l-0.857 0.44h-28.824c-30.903-12.888-56.541-33.164-75.513-58.688l-0.339-0.476c-4.255-5.808-11.050-9.537-18.717-9.537-3.977 0-7.719 1.003-10.988 2.771l0.122-0.061c-15.929 6.827-32.616 12.136-48.924 17.446-7.455 2.983-16.096 4.714-25.142 4.714-30.522 0-56.442-19.702-65.736-47.081l-0.144-0.489c-0.078-0.683-0.122-1.474-0.122-2.276s0.044-1.593 0.131-2.371l-0.009 0.096c-4.172-28.065-20.48-35.65-48.545-34.133-3.879 0.85-8.334 1.336-12.903 1.336-34.77 0-62.957-28.187-62.957-62.957 0-4.229 0.417-8.361 1.212-12.357l-0.067 0.401c1.409-5.592 2.218-12.011 2.218-18.618 0-38.253-27.098-70.178-63.145-77.625l-0.513-0.089c-26.892-8.603-46.022-33.377-46.022-62.619 0-13.393 4.013-25.849 10.902-36.231l-0.151 0.243c2.943-7.282 5.996-13.394 9.459-19.234l-0.357 0.651c6.827-10.619 3.793-17.825-4.93-26.927-14.412-15.929-26.548-34.133-37.926-51.2v-31.858c18.963-23.135 37.926-47.028 57.647-68.646 9.861-10.999 14.412-18.963 7.964-33.375-5.853-12.858-11.542-28.484-16.097-44.586l-0.59-2.442c-3.201-7.675-5.060-16.591-5.060-25.942 0-30.719 20.067-56.751 47.807-65.703l0.488-0.136c4.73-1.993 10.542-3.94 16.516-5.485l0.93-0.204c17.067-3.034 22.756-12.895 21.239-30.341-0.857-4.448-1.347-9.564-1.347-14.794 0-17.938 5.765-34.529 15.544-48.022l-0.164 0.238c11.13-15.588 29.159-25.628 49.533-25.628 2.996 0 5.942 0.217 8.821 0.637l-0.328-0.039c6.947 2.317 14.945 3.653 23.256 3.653 37.827 0 69.186-27.689 74.916-63.904l0.056-0.43c8.668-26.784 33.388-45.813 62.553-45.813 13.741 0 26.496 4.224 37.037 11.445l-0.224-0.145c6.691 6.042 15.601 9.739 25.374 9.739 14.373 0 26.878-7.995 33.312-19.78l0.099-0.198c11.428-10.336 24.557-19.096 38.856-25.764l0.966-0.404h22.756c25.174 16.873 47.076 33.956 67.686 52.45l-0.557-0.492c6.957 9.738 18.222 16.010 30.952 16.010 7.197 0 13.925-2.004 19.657-5.485l-0.168 0.095c10.634-5.080 23.243-9.742 36.314-13.281l1.612-0.372c7.109-2.708 15.331-4.276 23.918-4.276 30.429 0 56.26 19.691 65.445 47.025l0.142 0.487c1.583 3.054 2.889 6.598 3.735 10.317l0.058 0.303c3.034 25.41 17.825 29.582 40.96 28.824 55.751 0 83.437 24.273 78.886 79.644-1.074 4.687-1.689 10.068-1.689 15.594 0 34.905 24.559 64.074 57.34 71.169l0.48 0.087c52.717 19.342 64.095 58.027 37.926 109.227-4.434 5.43-7.121 12.439-7.121 20.075 0 10.582 5.159 19.958 13.099 25.752l0.091 0.063zM259.034 523.757c-0.232 2.793-0.364 6.045-0.364 9.327 0 52.896 34.269 97.789 81.817 113.687l0.846 0.245c9.664 3.2 20.789 5.046 32.345 5.046 53.876 0 98.381-40.121 105.268-92.114l0.059-0.541c2.798-10.023 4.406-21.533 4.406-33.419 0-52.649-31.553-97.928-76.78-117.959l-0.823-0.325c-78.127-26.548-146.773 28.065-146.773 116.053zM441.458 260.551c-19.342-34.513-19.342-34.513-64.853-27.307 18.204 32.616 35.65 64.853 53.476 97.090 52.717 95.194 106.951 189.63 157.772 285.582 15.55 29.961 32.996 45.132 69.784 32.616l-71.68-127.052q-71.68-131.224-144.498-260.93zM706.939 241.968c-80.403-37.926-163.081 27.686-155.876 120.984-0.027 0.937-0.043 2.040-0.043 3.146 0 54.765 37.81 100.7 88.751 113.122l0.797 0.164c78.886 13.653 133.12-34.513 133.12-137.292-0.007-44.543-26.676-82.856-64.916-99.848l-0.696-0.276zM401.256 577.991c-6.222 10.203-16.529 17.39-28.59 19.312l-0.233 0.031c-12.797-0.643-23.855-7.537-30.249-17.669l-0.092-0.156c-9.296-15.829-14.786-34.865-14.786-55.182s5.49-39.353 15.068-55.703l-0.282 0.521c5.21-10.918 16.16-18.327 28.841-18.327 13.692 0 25.367 8.638 29.872 20.761l0.072 0.22c5.447 14.013 10.176 30.688 13.378 47.901l0.275 1.782c-2.749 21.157-7.4 40.247-13.882 58.468l0.608-1.959zM665.6 428.184c-13.23-1.413-24.461-8.882-30.996-19.541l-0.103-0.18c-6.458-15.136-11.49-32.757-14.261-51.12l-0.151-1.218c2.979-19.462 8.006-36.947 14.96-53.421l-0.548 1.462c6.945-10.62 18.236-17.903 31.288-19.325l0.191-0.017c13.050 2.309 23.847 10.36 29.851 21.397l0.11 0.221c6.91 14.811 10.941 32.155 10.941 50.441s-4.032 35.631-11.255 51.193l0.313-0.752c-6.075 11.279-17.132 19.199-30.145 20.839l-0.196 0.020z" />
<glyph unicode="&#xe905;" glyph-name="qr" horiz-adv-x="1023" d="M0 656.592v282.075h282.075v-282.075zM217.89 720.777v153.706h-153.706v-153.706zM0-84.488v282.075h282.075v-282.075zM217.89-20.304v153.706h-153.706v-153.706zM741.080 656.592v282.075h282.075v-282.075zM958.971 720.777v153.706h-153.706v-153.706zM741.080 220.389v64.185h217.89v261.806h64.185v-325.991h-282.075zM958.971-84.488v130.481h-153.706v-130.481h-64.185v194.666h282.075v-194.666h-64.185zM566.684 656.592v217.89h-174.397v64.185h238.581v-282.075h-64.185zM572.173-85.333l-3.8 217.89-174.397-2.956-3.8 238.581 174.397 2.956-3.378 174.397 238.581 4.223 2.534-151.172-63.762-1.267-1.689 86.987-110.212-1.689 2.956-174.397-174.397-2.956 2.111-110.212 174.397 2.956 4.645-282.075-64.185-1.267zM392.287 23.19h64.185v-107.678h-64.185v107.678zM174.397 371.983h107.678v-64.185h-107.678v64.185zM0 307.799v238.581h392.287v217.89h64.185v-282.075h-392.287v-174.397h-64.185z" />
<glyph unicode="&#xe906;" glyph-name="clock" d="M0 426.667c0.001 282.769 229.231 511.999 512 511.999s512-229.23 512-512c0-282.77-229.23-512-512-512-0.406 0-0.812 0-1.218 0.001h0.063c-282.272 0.657-510.844 229.635-510.844 511.999 0 0 0 0.001 0 0.001v0zM547.828 27.931c192.7 18.121 344.787 170.208 362.786 361.306l0.122 1.602s0 0 0-19.648h-23.115c-23.115 19.648-40.451 43.919-33.517 65.878s18.492 25.427 34.673 49.698h21.959c-17.105 105.585-73.705 195.52-153.855 255.845l-1.017 0.733c-53.572 42.468-119.89 71.124-192.376 79.577l-1.791 0.17v-16.181c-13.869 0-13.869 0-13.869-9.246-2.851-17.557-17.735-30.851-35.792-31.205l-0.037-0.001c-0.139-0.002-0.304-0.003-0.469-0.003-17.748 0-32.482 12.905-35.331 29.842l-0.029 0.21c0 8.090 0 15.025-30.050 23.115v3.467c-97.666-17.662-181.309-68.067-241.041-139.219l-0.513-0.627c-45.127-53.978-76.716-120.758-88.677-194.131l-0.316-2.347h20.804c23.115-24.271 40.451-46.23 34.673-69.345-4.645-15.49-18.773-26.584-35.492-26.584-0.118 0-0.237 0.001-0.355 0.002h-19.63c9.679-95.221 52.040-179.066 115.522-241.5l0.054-0.053c65.472-65.529 153.697-108.316 251.81-115.499l1.301-0.076v15.025c-0.014 0.368-0.023 0.8-0.023 1.233 0 13.042 7.449 24.344 18.325 29.884l0.19 0.088c5.275 3.229 11.66 5.141 18.492 5.141s13.217-1.912 18.649-5.23l-0.157 0.089c9.789-6.24 16.188-17.040 16.188-29.334 0-0.251-0.003-0.502-0.008-0.753l0.001 0.037zM435.72 426.667c0.473 25.829 13.521 48.514 33.263 62.244l0.254 0.167s0 0 0 0 0 36.984 0 55.476v124.822c-0.547 4.509-0.859 9.731-0.859 15.025s0.312 10.515 0.919 15.646l-0.060-0.621c1.231 14.292 13.136 25.427 27.642 25.427 0.034 0 0.068 0 0.102 0h-0.005c0.028 0 0.060 0 0.093 0 15.144 0 27.567-11.651 28.794-26.478l0.007-0.104c0-16.181 0-31.205 0-46.23s0-63.567 0-94.772 0-43.919 0-65.878c0 0 0 0 0 0 18.757-12.316 31.72-32.137 34.633-55.093l0.040-0.383c0-6.935 0-11.558 8.090-16.181l86.682-99.395 55.476-62.411c3.255-5.076 5.189-11.269 5.189-17.914s-1.934-12.839-5.269-18.048l0.080 0.134c-5.291-15.18-19.224-25.989-35.76-26.58l-0.069-0.002c-0.357-0.016-0.777-0.026-1.198-0.026-7.656 0-14.587 3.101-19.606 8.116v0l-93.616 83.214-40.451 63.567c-3.821-0.848-8.211-1.334-12.713-1.334s-8.892 0.486-13.118 1.408l0.405-0.074c-28.755 8.451-49.964 33.16-53.137 63.245l-0.027 0.322c-2.827 3.538-4.858 7.834-5.75 12.533l-0.028 0.18z" />
<glyph unicode="&#xe907;" glyph-name="arrow" horiz-adv-x="1285" d="M773.356 938.667h-38.561v-179.95h38.561c186.936 0 338.477-151.541 338.477-338.477s-151.541-338.477-338.477-338.477h-38.561v-179.95h38.561c286.319 0 518.427 232.108 518.427 518.427s-232.108 518.427-518.427 518.427v0zM0 510.215h826.912c50.875 0 92.117-41.242 92.117-92.117v0c0-50.875-41.242-92.117-92.117-92.117v0h-826.912v184.234z" />
<glyph unicode="&#xe908;" glyph-name="back-arrow" horiz-adv-x="583" d="M460.653 917.541l-440.115-440.115c-12.759-13.095-20.629-31.009-20.629-50.76s7.869-37.665 20.644-50.776l-0.015 0.016 440.115-440.115c12.991-12.991 30.937-21.025 50.76-21.025 39.646 0 71.785 32.139 71.785 71.785 0 19.823-8.035 37.769-21.025 50.76l-440.115 440.115v-101.52l440.115 440.115c12.991 12.991 21.025 30.937 21.025 50.76 0 39.646-32.139 71.785-71.785 71.785-19.823 0-37.769-8.035-50.76-21.025v0z" />
<glyph unicode="&#xe909;" glyph-name="big-arrow" horiz-adv-x="1448" d="M986.444-64.207l440.115 440.115c12.759 13.095 20.629 31.009 20.629 50.76s-7.869 37.665-20.644 50.776l0.015-0.016-440.115 440.115c-65.137 65.724-164.896-37.556-101.52-101.52l440.115-440.115v101.52l-440.115-440.115c-12.991-12.991-21.025-30.937-21.025-50.76 0-39.646 32.139-71.785 71.785-71.785 19.823 0 37.769 8.035 50.76 21.025v0zM906.636 514.397h-821.547c-48.614 0-88.023-39.409-88.023-88.023s39.409-88.023 88.023-88.023v0h821.547c48.614 0 88.023 39.409 88.023 88.023s-39.409 88.023-88.023 88.023v0z" />
<glyph unicode="&#xe90a;" glyph-name="youtube" d="M1020.951 637.819c-1.030 44.977-9.701 87.624-24.76 127.119l0.875-2.612c-13.671 35.361-33.704 65.516-58.924 90.432l-0.026 0.025c-25.009 25.406-55.364 45.469-89.25 58.376l-1.716 0.574c-36.728 14.301-79.218 22.985-123.619 23.879l-0.379 0.006c-54.376 3.049-72.163 3.049-211.406 3.049s-156.014 0-210.898-3.049c-44.788-0.954-87.27-9.633-126.556-24.75l2.558 0.865c-35.602-13.481-65.957-33.544-90.934-58.917l-0.032-0.033c-25.246-24.941-45.279-55.096-58.357-88.726l-0.593-1.732c-14.184-36.882-22.855-79.53-23.877-124.067l-0.008-0.439c-3.049-54.884-3.049-72.163-3.049-210.898s0-156.522 3.049-211.406c0.954-44.788 9.633-87.27 24.75-126.556l-0.865 2.558c13.481-35.602 33.544-65.957 58.917-90.934l0.033-0.032c25.009-25.406 55.364-45.469 89.25-58.376l1.716-0.574c36.727-14.252 79.209-22.931 123.594-23.878l0.404-0.007c54.884-2.541 72.163-3.049 210.898-3.049s157.030 0 211.406 3.049c44.78 0.9 87.27 9.584 126.536 24.747l-2.538-0.862c69.223 26.954 122.962 80.692 149.308 148.149l0.608 1.767c14.252 36.727 22.931 79.209 23.878 123.594l0.007 0.404c2.541 54.884 3.049 72.163 3.049 211.406s-0.508 156.014-3.049 210.898zM384.191 234.318v385.207l333.372-192.603z" />
<glyph unicode="&#xe90b;" glyph-name="facebook" d="M1020.951 637.819c-1.030 44.977-9.701 87.624-24.76 127.119l0.875-2.612c-13.671 35.361-33.704 65.516-58.924 90.432l-0.026 0.025c-25.009 25.406-55.364 45.469-89.25 58.376l-1.716 0.574c-36.728 14.301-79.218 22.985-123.619 23.879l-0.379 0.006c-54.376 3.049-72.163 3.049-211.406 3.049s-156.014 0-210.898-3.049c-44.788-0.954-87.27-9.633-126.556-24.75l2.558 0.865c-35.602-13.481-65.957-33.544-90.934-58.917l-0.032-0.033c-25.246-24.941-45.279-55.096-58.357-88.726l-0.593-1.732c-14.184-36.882-22.855-79.53-23.877-124.067l-0.008-0.439c-3.049-54.884-3.049-72.163-3.049-210.898s0-156.522 3.049-211.406c0.954-44.788 9.633-87.27 24.75-126.556l-0.865 2.558c13.481-35.602 33.544-65.957 58.917-90.934l0.033-0.032c25.009-25.406 55.364-45.469 89.25-58.376l1.716-0.574c36.727-14.252 79.209-22.931 123.594-23.878l0.404-0.007c54.884-2.541 72.163-3.049 210.898-3.049s157.030 0 211.406 3.049c44.78 0.9 87.27 9.584 126.536 24.747l-2.538-0.862c69.223 26.954 122.962 80.692 149.308 148.149l0.608 1.767c14.252 36.727 22.931 79.209 23.878 123.594l0.007 0.404c2.541 54.884 3.049 72.163 3.049 211.406s-0.508 156.014-3.049 210.898zM649.465 623.59h-73.179c-36.59 0-44.721-23.885-44.721-50.819v-50.819h112.818l-15.754-98.080h-97.064v-295.258h-97.572v298.307h-59.458v98.080h59.458v57.933c0 79.786 24.393 137.719 111.801 137.719h101.638z" />
<glyph unicode="&#xe90c;" glyph-name="linkedin" d="M1020.951 637.819c-1.030 44.977-9.701 87.624-24.76 127.119l0.875-2.612c-13.671 35.361-33.704 65.516-58.924 90.432l-0.026 0.025c-25.009 25.406-55.364 45.469-89.25 58.376l-1.716 0.574c-36.727 14.252-79.209 22.931-123.594 23.878l-0.404 0.007c-54.884 3.049-72.163 3.049-211.406 3.049s-156.014 0-210.898-3.049c-44.78-0.9-87.27-9.584-126.536-24.747l2.538 0.862c-35.602-13.481-65.957-33.544-90.934-58.917l-0.032-0.033c-25.246-24.941-45.279-55.096-58.357-88.726l-0.593-1.732c-14.184-36.882-22.855-79.53-23.877-124.067l-0.008-0.439c-3.049-54.884-3.049-72.163-3.049-210.898s0-156.522 3.049-211.406c0.954-44.788 9.633-87.27 24.75-126.556l-0.865 2.558c13.481-35.602 33.544-65.957 58.917-90.934l0.033-0.032c25.009-25.406 55.364-45.469 89.25-58.376l1.716-0.574c36.728-14.301 79.218-22.985 123.619-23.879l0.379-0.006c54.376-2.541 72.163-3.049 210.898-3.049s156.522 0 211.406 3.049c44.788 0.954 87.27 9.633 126.556 24.75l-2.558-0.865c69.223 26.954 122.962 80.692 149.308 148.149l0.608 1.767c14.252 36.727 22.931 79.209 23.878 123.594l0.007 0.404c2.541 54.884 3.049 72.163 3.049 211.406s-0.508 156.014-3.049 210.898zM355.732 137.254h-123.998v406.551h123.998zM294.749 598.181c-40.416 0-73.179 32.763-73.179 73.179s32.763 73.179 73.179 73.179c40.416 0 73.179-32.763 73.179-73.179v0c0.001-0.152 0.002-0.331 0.002-0.51 0-40.135-32.536-72.671-72.671-72.671-0.179 0-0.358 0.001-0.537 0.002h0.028zM829.364 137.254h-126.031v197.177c0 47.262 0 107.228-65.048 107.228s-75.72-50.819-75.72-101.638v-200.734h-126.031v406.551h122.473v-58.442c23.387 39.267 65.62 65.164 113.902 65.164 1.942 0 3.874-0.042 5.796-0.125l-0.274 0.009c127.555 0 152.457-83.851 152.457-192.603z" />
<glyph unicode="&#xe90d;" glyph-name="instagram" d="M1020.951 637.819c-1.030 44.977-9.701 87.624-24.76 127.119l0.875-2.612c-13.671 35.361-33.704 65.516-58.924 90.432l-0.026 0.025c-25.009 25.406-55.364 45.469-89.25 58.376l-1.716 0.574c-36.727 14.252-79.209 22.931-123.594 23.878l-0.404 0.007c-54.376 3.049-72.163 3.049-211.406 3.049s-156.014 0-210.898-3.049c-44.788-0.954-87.27-9.633-126.556-24.75l2.558 0.865c-35.602-13.481-65.957-33.544-90.934-58.917l-0.032-0.033c-25.246-24.941-45.279-55.096-58.357-88.726l-0.593-1.732c-14.184-36.882-22.855-79.53-23.877-124.067l-0.008-0.439c-3.049-54.884-3.049-72.163-3.049-210.898s0-156.522 3.049-211.406c0.954-44.788 9.633-87.27 24.75-126.556l-0.865 2.558c13.481-35.602 33.544-65.957 58.917-90.934l0.033-0.032c25.009-25.406 55.364-45.469 89.25-58.376l1.716-0.574c36.727-14.252 79.209-22.931 123.594-23.878l0.404-0.007c54.884-2.541 72.163-3.049 210.898-3.049s157.030 0 211.406 3.049c44.788 0.954 87.27 9.633 126.556 24.75l-2.558-0.865c69.223 26.954 122.962 80.692 149.308 148.149l0.608 1.767c14.252 36.727 22.931 79.209 23.878 123.594l0.007 0.404c2.541 54.884 3.049 72.163 3.049 211.406s-0.508 156.014-3.049 210.898zM783.119 338.496c0.035-1.661 0.055-3.619 0.055-5.581 0-22.527-2.613-44.444-7.552-65.464l0.383 1.931c-12.944-57.947-61.086-101.615-120.363-107.687l-0.586-0.049c-20.957-3.31-45.123-5.201-69.73-5.201-3.715 0-7.419 0.043-11.113 0.129l0.549-0.010c-58.95 0-118.408 0-177.358 0-1.522-0.056-3.31-0.088-5.105-0.088-81.393 0-147.375 65.982-147.375 147.375 0 0.925 0.009 1.847 0.025 2.768l-0.002-0.138c0 39.639 0 79.786 0 119.933-0.642 13.243-1.008 28.764-1.008 44.369 0 35.026 1.843 69.621 5.436 103.695l-0.363-4.247c6.381 66.376 60.112 118.354 126.707 121.951l0.341 0.015c67.081 5.59 134.162 4.574 203.275 4.574 4.903 0.21 10.654 0.329 16.433 0.329 23.45 0 46.44-1.968 68.814-5.748l-2.413 0.337c65.721-9.039 116.195-63.533 118.907-130.335l0.009-0.27c3.049-74.196 2.033-148.391 2.033-222.587zM512.762 518.395c-0.306 0.004-0.667 0.006-1.029 0.006-49.678 0-89.949-40.272-89.949-89.949 0-0.538 0.005-1.075 0.014-1.611l-0.001 0.081c-0.004-0.306-0.006-0.668-0.006-1.030 0-49.116 39.817-88.933 88.933-88.933 0.538 0 1.075 0.005 1.611 0.014l-0.081-0.001c2.034-0.162 4.403-0.254 6.794-0.254 50.239 0 90.966 40.727 90.966 90.966s-40.727 90.966-90.966 90.966c-2.391 0-4.761-0.092-7.105-0.273l0.311 0.019zM649.973 643.918c-50.819 4.066-146.867 5.082-146.867 3.557-36.081 0-72.163 0-107.736 0-1.886 0.133-4.088 0.208-6.307 0.208-52.765 0-95.539-42.774-95.539-95.539 0-2.219 0.076-4.42 0.225-6.602l-0.016 0.295c-3.049-75.72-4.574-152.457 0-227.16-0.341-3.124-0.535-6.747-0.535-10.415 0-56.133 45.505-101.638 101.638-101.638 2.513 0 5.005 0.091 7.472 0.27l-0.331-0.019c57.425 0 114.342 0 171.26 0 2.042-0.026 4.454-0.041 6.87-0.041 21.028 0 41.795 1.122 62.242 3.31l-2.54-0.22c45.415 0.928 82.941 33.575 91.376 76.644l0.098 0.601c2.513 10.815 3.99 23.256 4.065 36.029v0.053c0 59.966 2.541 120.441 0 180.407 0.001 0.35 0.002 0.765 0.002 1.18 0 25.707-2.964 50.721-8.569 74.721l0.435-2.213c-8.648 36.326-39.384 63.445-76.933 66.552l-0.312 0.021zM512.254 288.186c-76.076 0.719-137.471 62.558-137.471 138.735 0 76.625 62.117 138.741 138.741 138.741 0.447 0 0.893-0.002 1.339-0.006l-0.068 0.001c0.169 0.001 0.369 0.001 0.569 0.001 74.938 0 135.686-60.749 135.686-135.686 0-1.43-0.022-2.855-0.066-4.274l0.005 0.208c0.002-0.306 0.004-0.669 0.004-1.032 0-75.499-61.204-136.703-136.703-136.703-0.716 0-1.431 0.006-2.144 0.016l0.108-0.001zM657.596 542.28c-17.352 0.796-31.22 14.664-32.013 31.942l-0.003 0.074c1.326 17.148 15.567 30.56 32.94 30.56 0.748 0 1.49-0.025 2.225-0.074l-0.1 0.005c17.577-0.835 31.512-15.289 31.512-32.997 0-0.191-0.002-0.382-0.005-0.572v0.029c-0.509-17.284-14.642-31.102-32.003-31.102-0.899 0-1.789 0.037-2.669 0.11l0.115-0.008z" />
<glyph unicode="&#xe90e;" glyph-name="twitter" d="M1020.951 637.819c-1.030 44.977-9.701 87.624-24.76 127.119l0.875-2.612c-13.671 35.361-33.704 65.516-58.924 90.432l-0.026 0.025c-25.009 25.406-55.364 45.469-89.25 58.376l-1.716 0.574c-36.728 14.301-79.218 22.985-123.619 23.879l-0.379 0.006c-54.376 3.049-72.163 3.049-211.406 3.049s-156.014 0-210.898-3.049c-44.788-0.954-87.27-9.633-126.556-24.75l2.558 0.865c-35.602-13.481-65.957-33.544-90.934-58.917l-0.032-0.033c-25.246-24.941-45.279-55.096-58.357-88.726l-0.593-1.732c-14.184-36.882-22.855-79.53-23.877-124.067l-0.008-0.439c-3.049-54.884-3.049-72.163-3.049-210.898s0-156.522 3.049-211.406c0.954-44.788 9.633-87.27 24.75-126.556l-0.865 2.558c13.481-35.602 33.544-65.957 58.917-90.934l0.033-0.032c25.009-25.406 55.364-45.469 89.25-58.376l1.716-0.574c36.727-14.252 79.209-22.931 123.594-23.878l0.404-0.007c54.884-2.541 72.163-3.049 210.898-3.049s157.030 0 211.406 3.049c44.78 0.9 87.27 9.584 126.536 24.747l-2.538-0.862c69.223 26.954 122.962 80.692 149.308 148.149l0.608 1.767c14.252 36.727 22.931 79.209 23.878 123.594l0.007 0.404c2.541 54.884 3.049 72.163 3.049 211.406s-0.508 156.014-3.049 210.898zM762.283 548.378c-13.827-10.194-22.698-26.418-22.698-44.714 0-2.151 0.123-4.273 0.361-6.359l-0.024 0.255c-3.657-107.792-58.901-201.948-141.699-258.967l-1.102-0.717c-50.694-35.56-113.672-56.827-181.617-56.827-13.904 0-27.601 0.891-41.035 2.618l1.59-0.167c-50.794 4.586-97.109 20.241-137.668 44.522l1.473-0.817-4.574 3.049c4.103-0.237 8.904-0.372 13.735-0.372 57.707 0 110.92 19.237 153.578 51.648l-0.628-0.457c-50.375 2.39-92.493 35.253-108.491 80.464l-0.261 0.846h50.819v3.049c-26.172 6.749-48.292 21.281-64.368 40.946l-0.172 0.217c-15.846 20.198-25.412 45.98-25.412 73.996 0 0.249 0.001 0.498 0.002 0.746v-0.038l50.819-13.721v2.541c-29.487 22.201-48.353 57.14-48.353 96.485 0 20.467 5.105 39.742 14.112 56.62l-0.316-0.648c57.485-69.674 141.78-115.444 236.873-121.409l0.96-0.048c-0.508 8.202-0.798 17.788-0.798 27.442s0.29 19.24 0.861 28.751l-0.063-1.308c12.562 51.136 58.012 88.474 112.182 88.474 28.864 0 55.253-10.601 75.484-28.122l-0.145 0.123c4.184-4.467 10.12-7.251 16.705-7.251 3.53 0 6.873 0.8 9.859 2.228l-0.138-0.059 57.933 22.36c-8.546-24.267-24.363-44.19-44.804-57.67l-0.425-0.263v-3.557l56.409 15.246c-8.527-14.845-18.12-27.675-29.054-39.224l0.088 0.093z" />
<glyph unicode="&#xe90f;" glyph-name="envelope" d="M1024 545.143v-453.714c0-50.286-41.143-91.429-91.429-91.429h-841.143c-50.286 0-91.429 41.143-91.429 91.429v453.714c17.143-18.857 36.571-35.429 57.714-49.714 94.857-64.571 190.857-129.143 284-197.143 48-35.429 107.429-78.857 169.714-78.857h1.143c62.286 0 121.714 43.429 169.714 78.857 93.143 67.429 189.143 132.571 284.571 197.143 20.571 14.286 40 30.857 57.143 49.714zM1024 713.143c0-64-47.429-121.714-97.714-156.571-89.143-61.714-178.857-123.429-267.429-185.714-37.143-25.714-100-78.286-146.286-78.286h-1.143c-46.286 0-109.143 52.571-146.286 78.286-88.571 62.286-178.286 124-266.857 185.714-40.571 27.429-98.286 92-98.286 144 0 56 30.286 104 91.429 104h841.143c49.714 0 91.429-41.143 91.429-91.429z" />
<glyph unicode="&#xe910;" glyph-name="phone" horiz-adv-x="954" d="M938.142 50.938c-7.631-8.807-15.611-16.787-24.125-24.169l-0.294-0.249-39.385-35.446c-22.578-20.316-48.559-37.471-76.866-50.42l-1.903-0.78c-26.847-12.295-57.991-21.179-90.669-25.062l-1.491-0.144h-37.022c-48.36 0.881-94.256 10.342-136.585 26.917l2.677-0.923c-43.035 15.953-80.201 35.332-114.455 58.669l1.815-1.167c-43.726 28.658-81.843 59.267-116.777 93.14l0.199-0.192c-59.108 55.295-112.384 115.317-159.753 179.939l-2.512 3.593c-31.651 41.39-60.747 88.131-85.2 137.578l-2.233 4.994c-17.619 35.193-32.505 76.175-42.559 119.019l-0.764 3.861c-7.139 27.469-11.238 59.003-11.238 91.495 0 9.659 0.362 19.233 1.074 28.709l-0.076-1.263c5.198 64.796 28.97 123.199 65.923 170.872l-0.544-0.73c16.619 20.635 34.976 38.742 55.193 54.585l0.733 0.554c12.603 9.452 23.631 20.48 36.234 30.72 8.074 7.595 17.441 13.936 27.713 18.641l0.644 0.264c7.082 2.948 15.31 4.66 23.937 4.66 11.781 0 22.817-3.193 32.289-8.761l-0.299 0.163c15.995-10.102 29.549-22.402 40.698-36.673l0.262-0.348c14.799-18.572 29.352-39.396 42.586-61.111l1.525-2.692c11.815-19.692 24.418-38.597 34.658-59.077 8.245-16.694 14.323-36.073 17.21-56.477l0.119-1.024c0.607-3.889 0.954-8.375 0.954-12.941 0-23.732-9.37-45.275-24.613-61.131l0.028 0.029c-11.028-11.815-23.631-22.055-35.446-33.083-11.055-9.774-23.12-19.34-35.686-28.246l-1.335-0.898c-15.626-9.837-27.159-24.955-32.17-42.802l-0.125-0.521c-1.874-7.093-2.951-15.236-2.951-23.631s1.076-16.538 3.099-24.299l-0.148 0.668c5.969-22.432 14.322-42.079 25.020-60.176l-0.601 1.099c20.474-35.167 42.347-65.57 66.789-93.68l-0.623 0.732c23.264-28.744 47.495-54.473 73.508-78.286l0.535-0.483c20.791-20.659 44.034-38.89 69.244-54.208l1.648-0.93c14.407-9.29 31.413-15.939 49.674-18.809l0.739-0.096c3.368-0.561 7.249-0.881 11.205-0.881 19.185 0 36.61 7.537 49.475 19.813l-0.028-0.027 10.24 9.452c13.866 15.513 28.81 29.458 44.924 41.966l0.762 0.569c8.191 7.678 17.204 14.688 26.829 20.826l0.741 0.442c13.592 8.343 30.052 13.284 47.666 13.284 11.155 0 21.847-1.982 31.743-5.612l-0.64 0.205c23.291-7.731 43.453-18.996 60.988-33.35l-0.336 0.266c22.055-17.329 43.323-36.234 65.378-54.351 15.478-13.144 29.391-27.057 42.108-42.019l0.428-0.516c8.845-10.527 16.048-22.801 20.992-36.171l0.276-0.851c2.85-6.735 4.506-14.567 4.506-22.785 0-15.511-5.899-29.645-15.577-40.279l0.043 0.048z" />
<glyph unicode="&#xe911;" glyph-name="location" horiz-adv-x="677" d="M669.84 667.747c-8.953 43.206-25.607 81.413-48.595 114.935l0.693-1.070c-43.135 69.671-110.12 121.073-189.326 143.162l-2.281 0.543c-12.86 3.619-28.812 6.914-45.089 9.191l-2.027 0.232-18.061 3.926h-57.325c-34.572-3.786-66.19-12.098-95.729-24.4l2.281 0.842c-76.567-30.131-137.844-85.307-175.024-155.246l-0.877-1.809c-26.043-48.349-41.347-105.809-41.347-166.844 0-15.928 1.042-31.612 3.062-46.989l-0.194 1.808c11.734-91.36 36.588-174.312 72.819-250.826l-2.144 5.034c61.531-134.5 133.151-250.399 217.067-356.095l-2.687 3.506 8.638-10.209v-4.712c8.673-11.121 21.899-18.343 36.828-18.844l0.080-0.002c14.777 0.091 27.981 6.752 36.85 17.206l0.058 0.070 6.282 7.067c79.441 99.196 150.144 211.371 207.517 331.148l4.508 10.448c41.468 77.020 72.46 166.514 88.055 261.197l0.681 5.012c1.711 13.765 2.687 29.696 2.687 45.855 0 26.842-2.693 53.055-7.825 78.383l0.426-2.52zM338.454 426.667c-95.847 0-173.546 77.699-173.546 173.546s77.699 173.546 173.546 173.546v0 0c95.847 0 173.546-77.699 173.546-173.546s-77.699-173.546-173.546-173.546v0z" />
<glyph unicode="&#xe912;" glyph-name="front-arrow" horiz-adv-x="583" d="M122.645-64.207l440.115 440.115c12.759 13.095 20.629 31.009 20.629 50.76s-7.869 37.665-20.644 50.776l0.015-0.016-440.115 440.115c-12.991 12.991-30.937 21.025-50.76 21.025-39.646 0-71.785-32.139-71.785-71.785 0-19.823 8.035-37.769 21.025-50.76l440.115-440.115v101.52l-440.115-440.115c-12.991-12.991-21.025-30.937-21.025-50.76 0-39.646 32.139-71.785 71.785-71.785 19.823 0 37.769 8.035 50.76 21.025v0z" />
<glyph unicode="&#xe913;" glyph-name="user-line" horiz-adv-x="965" d="M91.318-85.333h780.765c0.233-0.002 0.509-0.003 0.786-0.003 50.899 0 92.16 41.261 92.16 92.16 0 12.278-2.401 23.994-6.759 34.707l0.222-0.617c-77.939 190.132-261.59 321.612-475.95 321.612s-398.011-131.48-474.707-318.195l-1.242-3.417c-4.152-10.139-6.563-21.906-6.563-34.235 0-19.487 6.021-37.568 16.304-52.484l-0.203 0.311c15.941-24.142 42.953-39.852 73.633-39.852 0.546 0 1.091 0.005 1.635 0.015l-0.082-0.001zM65.788 17.067c67.891 166.448 228.487 281.62 415.982 281.62s348.091-115.172 414.901-278.628l1.082-2.991c1.347-3.169 2.131-6.855 2.131-10.724 0-6.197-2.009-11.925-5.412-16.567l0.055 0.079c-5.173-6.845-13.297-11.222-22.444-11.222v0h-780.765c-0.051 0-0.112-0.001-0.172-0.001-9.48 0-17.76 5.139-22.206 12.783l-0.066 0.123c-3.282 4.186-5.263 9.528-5.263 15.333 0 3.693 0.802 7.199 2.241 10.353l-0.064-0.156zM225.701 682.667c0-141.385 114.615-256 256-256s256 114.615 256 256c0 141.385-114.615 256-256 256v0c-141.224-0.398-255.602-114.775-256-255.962v-0.038zM673.736 682.667c0-106.058-85.977-192.035-192.035-192.035s-192.035 85.977-192.035 192.035c0 106.058 85.977 192.035 192.035 192.035v0c105.749-0.556 191.298-86.252 191.614-192.005v-0.030z" />
<glyph unicode="&#xe914;" glyph-name="email-line" horiz-adv-x="1277" d="M1071.49 938.667h-398.293c-163.246 0-326.351 0-489.456 0-104.873 0-182.044-67.277-182.61-162.681q-2.261-350.096 0-699.486c1.115-89.159 73.536-161.035 162.8-161.268h0.022c315.751-0.848 631.643 0 946.97 0 38.946 0.375 74.518 14.522 102.149 37.796l-0.243-0.2c36.041 28.268 52.719 68.125 63.461 111.092v728.319c-36.748 111.658-85.51 146.427-204.8 146.427zM1090.853 875.065h7.774c-3.251-4.24-6.219-8.763-9.47-12.72-93.425-112.364-260.77-321.405-354.195-433.204-57.949-69.397-138.371-69.397-196.32 0-96.11 113.778-271.936 325.079-372.145 445.217 5.371 0 10.883 0 16.678 0q453.98 1.555 907.678 0.707zM1209.437 99.68c0-77.030-42.402-119.29-119.997-119.431-151.798 0-303.455 0-455.252 0h-446.772c-87.206 0-128.053 41.412-128.194 129.325q0 320.133 0 640.265c0.141 47.49 14.699 82.825 43.391 104.025 2.329-3.537 4.607-6.578 7.048-9.478l-0.123 0.15c98.089-117.877 280.558-337.659 378.929-454.263 34.86-44.064 88.331-72.083 148.345-72.083 0.021 0 0.043 0 0.064 0h-0.003c1.672-0.058 3.637-0.090 5.609-0.090 54.706 0 103.524 25.207 135.474 64.639l0.256 0.326c74.91 90.598 150.526 180.631 226.142 270.947 25.582 30.247 125.085 157.451 150.385 188.687 3.458 3.959 6.165 8.673 7.837 13.853l0.078 0.281c30.671-19.505 46.783-54.415 46.783-102.612q0.283-327.341 0-654.54z" />
<glyph unicode="&#xe915;" glyph-name="plus" horiz-adv-x="1082" d="M1082.333 333.778h-439.401v-419.111h-199.093v419.111h-443.839v185.778h443.839v419.111h201.63v-419.111h439.401z" />
<glyph unicode="&#xe916;" glyph-name="chevron-down" d="M961.714 489.143l-424-423.429c-14.286-14.286-37.143-14.286-51.429 0l-424 423.429c-14.286 14.286-14.286 37.714 0 52l94.857 94.286c14.286 14.286 37.143 14.286 51.429 0l303.429-303.429 303.429 303.429c14.286 14.286 37.143 14.286 51.429 0l94.857-94.286c14.286-14.286 14.286-37.714 0-52z" />
<glyph unicode="&#xe917;" glyph-name="chevron-up" d="M961.714 190.286l-94.857-94.286c-14.286-14.286-37.143-14.286-51.429 0l-303.429 303.429-303.429-303.429c-14.286-14.286-37.143-14.286-51.429 0l-94.857 94.286c-14.286 14.286-14.286 37.714 0 52l424 423.429c14.286 14.286 37.143 14.286 51.429 0l424-423.429c14.286-14.286 14.286-37.714 0-52z" />
<glyph unicode="&#xe918;" glyph-name="edit" horiz-adv-x="956" d="M296.96 467.627l-26.169-185.458c-2.276-18.204 10.24-36.409 29.582-38.684 1.138 0 3.413 0 4.551 0h4.551l188.871 23.893c7.964 1.138 14.791 4.551 20.48 10.24l373.191 374.329c60.302 55.751 63.716 150.187 7.964 210.489s-152.462 61.44-212.764 5.689c-2.276-2.276-5.689-4.551-7.964-7.964l-373.191-373.191c-4.551-5.689-7.964-12.516-9.102-19.342zM362.951 446.009l365.227 366.364c34.133 29.582 84.196 25.031 113.778-7.964 26.169-30.72 26.169-75.093 0-105.813l-365.227-366.364-133.12-15.929 19.342 129.707zM506.311 938.667h-381.156c-69.404 0-125.156-55.751-125.156-125.156v-773.689c0-69.404 55.751-125.156 125.156-125.156h705.422c69.404 0 125.156 55.751 125.156 125.156v463.076c0 19.342-14.791 34.133-34.133 34.133s-34.133-14.791-34.133-34.133v-463.076c0-31.858-25.031-56.889-56.889-56.889h-705.422c-31.858 0-56.889 25.031-56.889 56.889v773.689c0 31.858 25.031 56.889 56.889 56.889h381.156c19.342 0 34.133 14.791 34.133 34.133s-14.791 34.133-34.133 34.133z" />
<glyph unicode="&#xe919;" glyph-name="list" horiz-adv-x="1129" d="M796.419 867.766h-292.904c-27.896 0-44.168-13.25-44.4-34.869s16.040-35.102 43.703-35.799h575.114c3.276-0.334 7.078-0.525 10.926-0.525s7.65 0.191 11.4 0.563l-0.474-0.038c16.352 2.138 28.847 15.983 28.847 32.746 0 0.42-0.008 0.838-0.023 1.253l0.002-0.060c0.081 0.869 0.128 1.88 0.128 2.901 0 16.553-12.185 30.261-28.074 32.643l-0.181 0.022c-4.971 0.884-10.693 1.39-16.534 1.39-2.362 0-4.704-0.083-7.025-0.245l0.312 0.018zM796.419 408.884h287.557c28.128 0 44.4 12.785 45.098 34.405s-16.272 35.799-46.493 36.264h-571.162c-8.136 0-17.9 2.092-23.246-1.86-11.806-5.929-21.132-15.33-26.811-26.852l-0.154-0.346c-0.372-1.926-0.586-4.141-0.586-6.406 0-9.524 3.768-18.168 9.894-24.522l-0.010 0.011c9.040-6.692 20.411-10.712 32.72-10.712 0.511 0 1.020 0.007 1.527 0.021l-0.075-0.002c96.937-0.465 193.874 0 290.811 0zM794.559 91.107h-283.14c-3.272 0.279-7.080 0.438-10.926 0.438s-7.654-0.159-11.419-0.471l0.493 0.033c-17.076-1.669-30.312-15.951-30.312-33.325 0-0.871 0.033-1.734 0.099-2.588l-0.007 0.113c-0.003-0.172-0.005-0.376-0.005-0.579 0-17.764 13.648-32.341 31.030-33.817l0.125-0.009c2.956-0.223 6.403-0.35 9.88-0.35s6.923 0.127 10.336 0.377l-0.456-0.027h568.372c2.96-0.277 6.402-0.435 9.88-0.435s6.92 0.158 10.317 0.467l-0.438-0.032c19.258 0 34.869 15.612 34.869 34.869s-15.612 34.869-34.869 34.869v0c-2.96 0.277-6.402 0.435-9.88 0.435s-6.92-0.158-10.317-0.467l0.438 0.032zM140.873 775.943c-26.036 26.733-49.282 52.072-75.086 74.853-9.984 8.948-23.246 14.418-37.786 14.418-0.282 0-0.564-0.002-0.846-0.006h0.043c-28.825-3.952-35.799-37.891-13.018-61.37 29.988-31.383 60.905-61.603 91.59-92.985s43.006-27.198 69.739 0q77.875 77.875 155.75 155.75c6.044 6.277 14.878 13.25 15.575 20.689 0.698 3.547 1.098 7.625 1.098 11.797 0 9.991-2.292 19.446-6.379 27.87l0.166-0.38c-5.129 7.5-13.643 12.359-23.292 12.359-6.081 0-11.712-1.93-16.313-5.211l0.086 0.058c-8.242-5.339-15.401-11.242-21.82-17.867l-0.031-0.032c-45.795-45.563-91.358-91.358-139.478-139.943zM139.478 387.497c-26.733 27.198-50.909 52.769-76.015 77.41-6.51 8.709-16.794 14.287-28.382 14.287-12.577 0-23.619-6.571-29.881-16.467l-0.086-0.145c-3.269-5.403-5.204-11.931-5.204-18.91 0-12.533 6.238-23.609 15.778-30.293l0.119-0.079 90.428-90.428c26.501-26.268 42.773-26.501 69.739 0q79.735 78.805 158.075 158.772c5.579 5.579 13.715 12.321 13.948 18.83 0.526 2.834 0.826 6.094 0.826 9.424 0 10.347-2.901 20.017-7.935 28.239l0.135-0.237c-7.952 5.3-17.727 8.458-28.24 8.458-3.165 0-6.262-0.286-9.269-0.834l0.314 0.048c-7.904 0-15.575-10.228-23.246-16.97zM139.478-0.484c-27.198 27.431-51.607 52.769-76.945 77.41-6.474 8.531-16.619 13.983-28.038 13.983-12.701 0-23.827-6.746-29.99-16.851l-0.088-0.155c-3.047-5.176-4.847-11.402-4.847-18.049 0-11.526 5.412-21.788 13.834-28.384l0.079-0.059 92.985-92.985c26.501-26.268 42.541-26.268 69.739 0l157.378 157.378c5.685 5.45 10.677 11.55 14.876 18.201l0.234 0.397c2.957 4.677 4.711 10.369 4.711 16.472 0 9.493-4.247 17.995-10.944 23.708l-0.043 0.036c-5.707 6.692-14.146 10.908-23.569 10.908-6.181 0-11.938-1.814-16.768-4.937l0.121 0.073c-7.657-4.92-14.29-10.446-20.175-16.685l-0.049-0.052zM796.419 867.766h281.978c2.008 0.145 4.35 0.228 6.712 0.228 5.841 0 11.563-0.506 17.126-1.476l-0.592 0.085c16.032-2.44 28.175-16.129 28.175-32.654 0-0.616-0.017-1.228-0.050-1.835l0.004 0.085c0-0.041 0-0.090 0-0.139 0-17.167-13.104-31.273-29.855-32.861l-0.133-0.010c-3.276-0.334-7.078-0.525-10.926-0.525s-7.65 0.191-11.4 0.563l0.474-0.038h-575.114c-27.663 0-43.936 13.948-43.703 35.799s16.505 34.869 44.4 34.869zM795.489 408.884c-96.937 0-193.874 0-290.811 0-0.433-0.012-0.942-0.019-1.452-0.019-12.309 0-23.68 4.020-32.87 10.819l0.15-0.106c-6.116 6.344-9.884 14.987-9.884 24.511 0 2.265 0.213 4.48 0.62 6.627l-0.035-0.22c5.872 11.775 15.191 21.094 26.624 26.811l0.341 0.155c5.812 3.952 15.575 1.86 23.246 1.86h572.092c29.29 0 46.493-13.715 46.493-36.264s-16.97-34.405-45.098-34.405zM793.629 91.107h284.302c2.96 0.277 6.402 0.435 9.88 0.435s6.92-0.158 10.317-0.467l-0.438 0.032c19.258 0 34.869-15.612 34.869-34.869s-15.612-34.869-34.869-34.869v0c-2.96-0.277-6.402-0.435-9.88-0.435s-6.92 0.158-10.317 0.467l0.438-0.032h-566.513c-2.956-0.223-6.403-0.35-9.88-0.35s-6.923 0.127-10.336 0.377l0.456-0.027c-18.031 0.892-32.312 15.729-32.312 33.901 0 0.014 0 0.027 0 0.041v-0.002c-0.022 0.456-0.035 0.991-0.035 1.528 0 17.436 13.331 31.758 30.356 33.331l0.132 0.010c3.272 0.279 7.080 0.438 10.926 0.438s7.654-0.159 11.419-0.471l-0.493 0.033zM140.873 775.943c48.12 48.352 92.985 94.148 139.478 139.478 6.454 6.842 13.615 12.896 21.402 18.083l0.45 0.282c4.515 3.223 10.145 5.152 16.227 5.152 9.649 0 18.163-4.858 23.23-12.262l0.062-0.096c4.717-8.694 7.489-19.035 7.489-30.024 0-2.856-0.187-5.668-0.55-8.424l0.035 0.324c0-7.439-9.531-14.413-15.575-20.689q-77.643-78.108-155.75-155.75c-27.663-27.431-43.238-27.431-69.739 0s-63.462 60.44-93.45 91.823c-23.246 23.246-15.807 57.418 13.018 61.37 0.239 0.004 0.521 0.006 0.803 0.006 14.54 0 27.801-5.471 37.839-14.466l-0.054 0.047c25.803-22.781 49.050-48.12 75.086-74.853zM139.478 387.497l141.338 141.105c6.741 6.741 14.413 16.040 23.246 16.97 2.692 0.5 5.79 0.786 8.954 0.786 10.512 0 20.287-3.157 28.428-8.576l-0.189 0.118c4.899-7.986 7.8-17.655 7.8-28.002 0-3.331-0.301-6.591-0.876-9.755l0.050 0.331c0-6.509-8.369-13.25-13.948-18.83q-78.573-79.967-159.005-159.005c-26.268-26.268-42.541-26.036-69.739 0l-89.731 90.661c-9.378 6.79-15.408 17.704-15.408 30.027 0 7.121 2.014 13.772 5.503 19.414l-0.091-0.159c6.347 10.041 17.39 16.612 29.966 16.612 11.587 0 21.872-5.578 28.316-14.195l0.066-0.092c25.106-24.641 49.282-50.212 75.318-77.41zM140.64-0.484l139.478 139.478c5.934 6.292 12.568 11.817 19.806 16.485l0.418 0.252c4.77 3.161 10.628 5.044 16.924 5.044 9.399 0 17.819-4.194 23.489-10.813l0.035-0.042c7.169-5.756 11.72-14.52 11.72-24.347 0-5.478-1.414-10.626-3.897-15.098l0.081 0.159c-4.433-7.047-9.425-13.147-15.076-18.565l-0.034-0.032-158.075-157.378c-26.501-26.501-42.541-26.501-69.739 0l-91.823 92.985c-8.5 6.655-13.913 16.917-13.913 28.443 0 6.647 1.8 12.873 4.938 18.218l-0.092-0.169c6.25 10.259 17.376 17.005 30.077 17.005 11.419 0 21.565-5.453 27.975-13.896l0.063-0.087c26.036-24.874 50.444-50.212 77.643-77.643z" />
<glyph unicode="&#xe920;" glyph-name="stats" horiz-adv-x="1176" d="M0 499.128c-0.083 1.102-0.131 2.387-0.131 3.683 0 28.636 23.214 51.851 51.851 51.851 1.65 0 3.282-0.077 4.893-0.228l-0.206 0.016h180.719c1.4 0.134 3.027 0.21 4.671 0.21 28.756 0 52.068-23.312 52.068-52.068 0-1.219-0.042-2.428-0.124-3.626l0.009 0.162v-523.498h52.068v690.115c-0.043 0.812-0.067 1.762-0.067 2.718 0 30.314 24.574 54.888 54.888 54.888 1.245 0 2.48-0.041 3.705-0.123l-0.166 0.009h183.756c0.597 0.023 1.299 0.037 2.004 0.037 25.466 0 46.849-17.481 52.804-41.098l0.080-0.376c0.969-4.35 1.525-9.345 1.525-14.471 0-0.328-0.002-0.655-0.007-0.982l0.001 0.049v-187.661c0-4.122 0-6.508 0-9.112 0.014-0.356 0.022-0.774 0.022-1.193 0-17.985-14.58-32.564-32.564-32.564-17.565 0-31.882 13.907-32.541 31.311l-0.002 0.060c-0.155 1.658-0.243 3.585-0.243 5.532s0.088 3.875 0.261 5.777l-0.018-0.245v180.285h-167.051v-672.542h167.702v136.678c-0.103 1.654-0.162 3.586-0.162 5.532s0.059 3.879 0.175 5.796l-0.013-0.264c2.494 15.34 15.646 26.908 31.5 26.908 0.214 0 0.428-0.002 0.641-0.006h-0.032c0.042 0 0.093 0 0.143 0 16.783 0 30.58-12.791 32.172-29.156l0.010-0.132c0-4.773 0-9.763 0-14.536v-139.932h51.417v142.753c-0.055 0.74-0.087 1.602-0.087 2.472 0 16.636 11.488 30.589 26.963 34.359l0.242 0.050c1.27 0.153 2.74 0.241 4.231 0.241s2.961-0.087 4.406-0.257l-0.175 0.017c0 0 0 0 0.001 0 19.41 0 35.146-15.735 35.146-35.146 0-0.076 0-0.153-0.001-0.229v0.012-133.207h162.712v160.108c-0.004 0.194-0.006 0.422-0.006 0.652 0 19.291 15.638 34.929 34.929 34.929 0.078 0 0.157 0 0.235-0.001h-0.012c0.037 0 0.080 0 0.124 0 3.745 0 7.361-0.555 10.769-1.587l-0.263 0.068c14.58-4.501 24.991-17.858 24.991-33.647 0-0.604-0.015-1.204-0.045-1.8l0.003 0.084v-227.797l-999.919-4.339zM60.095 495.006v-510.915h173.559v510.915zM620.692 213.84c-13.477 0.092-24.816 9.14-28.369 21.485l-0.052 0.21c-0.568 2.156-0.894 4.631-0.894 7.183 0 11.781 6.956 21.937 16.985 26.586l0.181 0.075 67.254 30.373 377.708 175.295-162.929 38.4c-12.289 1.52-22.238 10.087-25.759 21.477l-0.058 0.218c-0.643 2.307-1.012 4.955-1.012 7.69 0 6.758 2.256 12.99 6.055 17.983l-0.053-0.073c5.81 6.917 14.464 11.284 24.137 11.284 0.133 0 0.266-0.001 0.398-0.002h-0.020c1.27 0.153 2.74 0.241 4.231 0.241s2.961-0.087 4.406-0.257l-0.175 0.017 247.105-58.142c14.862-1.909 26.23-14.481 26.23-29.708 0-8.212-3.306-15.651-8.66-21.060l0.002 0.003-177.681-224.325c-6.001-7.869-15.287-12.967-25.775-13.233l-0.042-0.001c-0.004 0-0.008 0-0.012 0-6.591 0-12.687 2.114-17.649 5.701l0.088-0.061c-6.2 4.525-10.507 11.324-11.695 19.147l-0.020 0.161c-0.172 1.241-0.271 2.675-0.271 4.132 0 7.786 2.809 14.915 7.469 20.43l-0.039-0.047 89.817 113.464-6.942 8.678-385.302-178.549c-4.541-2.289-9.824-3.9-15.404-4.536l-0.216-0.020zM729.817 503.467c-18.984 0.244-34.279 15.691-34.279 34.709 0 0.077 0 0.154 0.001 0.232v-0.012 341.695c-0.013 0.463-0.021 1.007-0.021 1.553 0 31.512 25.546 57.058 57.058 57.058 0.694 0 1.385-0.012 2.073-0.037l-0.1 0.003h184.841c0.855 0.045 1.857 0.071 2.864 0.071 31.872 0 57.708-25.837 57.708-57.708 0-0.788-0.016-1.572-0.047-2.353l0.004 0.112v-225.41c0.027-0.518 0.043-1.125 0.043-1.736 0-19.349-15.636-35.046-34.962-35.145h-0.009c-0.52-0.028-1.13-0.044-1.743-0.044-18.931 0-34.278 15.347-34.278 34.278 0 0.244 0.003 0.488 0.008 0.732l-0.001-0.036c0 15.403 0 216.949 0 216.949h-162.712v-308.936c0-3.471 0-7.159 0-10.631s0-6.942 0-9.98c0.022-0.461 0.035-1.002 0.035-1.545 0-18.692-15.153-33.844-33.844-33.844-0.47 0-0.938 0.010-1.404 0.029l0.067-0.002z" />
<glyph unicode="&#xe921;" glyph-name="menu" horiz-adv-x="1041" d="M52.075 680.376h937.347c28.76 0 52.075-23.315 52.075-52.075s-23.315-52.075-52.075-52.075h-937.347c-28.76 0-52.075 23.315-52.075 52.075s23.315 52.075 52.075 52.075zM52.075 430.416h937.347c28.76 0 52.075-23.315 52.075-52.075s-23.315-52.075-52.075-52.075h-937.347c-28.76 0-52.075 23.315-52.075 52.075s23.315 52.075 52.075 52.075zM52.075 180.457h937.347c28.76 0 52.075-23.315 52.075-52.075s-23.315-52.075-52.075-52.075h-937.347c-28.76 0-52.075 23.315-52.075 52.075s23.315 52.075 52.075 52.075z" />
<glyph unicode="&#xe922;" glyph-name="gear" horiz-adv-x="985" d="M0 263.523c8.074 12.529 16.903 23.424 26.773 33.276l0.003 0.003c24.864 20.656 52.405 38.252 76.504 58.525 6.51 5.968 10.782 14.285 11.469 23.599l0.007 0.117c0 31.366 0 62.35 0 93.717-0.147 10.122-4.203 19.268-10.721 26.023l0.011-0.011c-24.099 19.891-50.492 38.252-76.504 56.613-14.949 7.349-25.056 22.468-25.056 39.947 0 10.545 3.678 20.23 9.821 27.843l-0.066-0.085c22.951 38.252 45.902 80.329 69.618 119.728 6.8 16.047 22.418 27.1 40.618 27.1 7.38 0 14.336-1.817 20.443-5.029l-0.241 0.115c35.957-14.536 72.678-42.459 107.487-40.547s66.558 33.279 99.072 53.17c6.436 4.958 10.91 12.19 12.217 20.474l0.024 0.182c4.59 29.836 7.268 60.438 11.093 90.657 4.59 36.339 18.743 49.727 55.083 49.727h134.646c2.186 0.382 4.704 0.6 7.272 0.6 24.506 0 44.372-19.866 44.372-44.372 0-0.211-0.001-0.422-0.004-0.632v0.032c4.59-31.749 6.503-63.88 11.858-95.629 2.559-9.735 8.597-17.765 16.673-22.858l0.158-0.093c27.159-16.831 55.465-32.897 83.771-47.815 4.281-2.335 9.377-3.707 14.793-3.707 3.322 0 6.523 0.516 9.528 1.473l-0.222-0.061c30.984 11.858 61.203 26.011 91.804 38.252 6.449 3.919 14.245 6.239 22.583 6.239 18.122 0 33.684-10.958 40.423-26.61l0.109-0.286c24.099-38.252 47.815-81.094 71.148-122.023 5.426-7.233 8.689-16.359 8.689-26.248 0-16.691-9.296-31.211-22.994-38.665l-0.231-0.115c-26.011-19.508-52.787-38.252-76.504-58.143-6.564-6.605-10.733-15.598-11.091-25.561l-0.002-0.067c0-31.366 0-62.35 0-93.717 0.030-9.399 3.822-17.907 9.949-24.102l-0.003 0.003c25.246-20.273 52.022-38.252 76.504-57.76 14.635-7.56 24.466-22.578 24.466-39.892 0-10.899-3.896-20.888-10.371-28.65l0.058 0.072c-22.186-38.252-44.372-76.504-67.323-114.755-6.48-17.752-23.218-30.197-42.863-30.197-9.4 0-18.135 2.849-25.388 7.732l0.163-0.103c-28.306 11.858-56.23 25.246-84.919 35.574-3.395 0.967-7.293 1.523-11.322 1.523-7.031 0-13.667-1.694-19.521-4.696l0.241 0.112c-27.924-14.153-55.465-29.454-81.859-46.285-8.002-5.394-13.788-13.55-16.015-23.075l-0.051-0.259c-5.355-30.601-7.65-61.968-11.858-92.952 0.014-0.424 0.022-0.922 0.022-1.422 0-24.929-20.209-45.137-45.137-45.137-2.711 0-5.366 0.239-7.945 0.697l0.272-0.040h-135.029c-34.809 0-49.345 13.388-53.935 47.815s-5.738 60.82-11.093 90.657c-2.68 10.344-8.816 18.967-17.076 24.772l-0.138 0.092c-26.394 16.831-53.935 32.131-81.859 46.667-4.59 2.421-10.032 3.843-15.805 3.843-3.643 0-7.154-0.566-10.45-1.614l0.244 0.067c-31.749-11.858-62.733-26.394-94.099-38.252-5.712-3.174-12.526-5.042-19.778-5.042-15.7 0-29.354 8.758-36.344 21.655l-0.108 0.218c-26.394 43.607-51.64 87.979-76.504 132.351-3.44 7.020-6.693 15.395-9.262 24.063l-0.301 1.183zM650.28 427.623c0 0.087 0 0.189 0 0.292 0 87.461-70.901 158.362-158.362 158.362s-158.362-70.901-158.362-158.362c0-87.461 70.901-158.362 158.362-158.362 1.883 0 3.759 0.033 5.626 0.098l-0.271-0.008c84.914 1.924 153.015 71.215 153.015 156.412 0 0.551-0.003 1.102-0.009 1.652l0.001-0.084z" />
<glyph unicode="&#xe923;" glyph-name="cat-dress" horiz-adv-x="1212" d="M414.048 950.857h-11.121l-107.789-42.774c-6.032-2.749-11.15-6.498-15.368-11.087l-0.031-0.034-269.474-295.993c-7.208-7.391-11.654-17.506-11.654-28.658s4.446-21.267 11.663-28.667l-0.008 0.009 189.059-171.094c6.969-6.373 16.288-10.278 26.52-10.278s19.551 3.905 26.55 10.305l-0.030-0.027 17.965 15.398-43.629-411.482c-1.158-3.581-1.825-7.701-1.825-11.977 0-22.206 18.001-40.207 40.207-40.207 0.040 0 0.080 0 0.121 0h675.817c0.257-0.006 0.561-0.010 0.865-0.010 21.733 0 39.352 17.618 39.352 39.352 0 0.304-0.003 0.607-0.010 0.91l0.001-0.045v4.277l-40.207 414.048 17.109-15.398c7.1-6.431 16.564-10.367 26.947-10.367s19.847 3.936 26.982 10.397l-0.034-0.030 188.204 171.094c7.413 7.298 12.006 17.442 12.006 28.658s-4.593 21.36-12.001 28.653l-0.005 0.005-267.763 301.126c-4.095 4.825-9.259 8.616-15.136 11.026l-0.262 0.095-107.789 42.774c-3.964 1.402-8.535 2.212-13.296 2.212-17.958 0-33.224-11.528-38.801-27.588l-0.087-0.288s0 0 0 0c-21.003-56.708-74.624-96.396-137.516-96.396-4.594 0-9.138 0.212-13.623 0.626l0.576-0.043c-4.135-0.415-8.936-0.652-13.793-0.652-61.308 0-113.807 37.714-135.563 91.208l-0.352 0.979c-4.974 17.481-20.799 30.067-39.563 30.067-1.13 0-2.249-0.046-3.356-0.135l0.146 0.009zM396.084 858.466c42.848-66.867 116.773-110.548 200.899-110.548 3.358 0 6.699 0.070 10.023 0.207l-0.475-0.016c2.736-0.113 5.946-0.178 9.172-0.178 83.983 0 157.762 43.689 199.849 109.58l0.57 0.953 63.305-23.098 236.11-256.642-132.598-126.61-67.582 57.317c-7.028 5.8-16.126 9.317-26.045 9.317-12.499 0-23.693-5.584-31.224-14.393l-0.047-0.056c-5.561-6.296-8.955-14.619-8.955-23.735 0-1.889 0.146-3.743 0.426-5.553l-0.026 0.202 48.762-465.377h-584.287l49.617 467.943c0.1 1.065 0.157 2.303 0.157 3.555 0 21.057-16.187 38.333-36.796 40.065l-0.147 0.010c-0.827 0.056-1.792 0.088-2.765 0.088-10.315 0-19.794-3.58-27.263-9.565l0.086 0.067-66.727-57.317-132.598 120.622 236.11 256.642z" />
<glyph unicode="&#xe924;" glyph-name="cat-bar" horiz-adv-x="896" d="M882.759 876.224c6.026 7.185 9.686 16.531 9.686 26.732 0 0.759-0.020 1.514-0.060 2.263l0.004-0.105c0.186 0.844 0.292 1.814 0.292 2.809s-0.106 1.964-0.309 2.899l0.016-0.090c0.187 0.965 0.294 2.075 0.294 3.21s-0.107 2.245-0.312 3.32l0.017-0.11c-2.619 10.538-8.61 19.4-16.741 25.599l-0.112 0.082c-7.2 4.943-16.082 7.929-25.656 8.025h-804.137c-25.238-0.033-45.686-20.5-45.686-45.743 0-8.584 2.365-16.617 6.478-23.481l-0.115 0.208 85.066-120.376c19.26-28.89 39.323-56.978 59.386-85.066-0.137-0.964-0.215-2.078-0.215-3.21s0.078-2.246 0.229-3.336l-0.014 0.126c8.828-11.235 16.853-23.273 24.878-35.31l65.003-85.066 136.426-195.009 24.075-37.718v-298.533h-160.502c-1.816 0.255-3.914 0.401-6.045 0.401-25.263 0-45.743-20.48-45.743-45.743s20.48-45.743 45.743-45.743c2.132 0 4.23 0.146 6.284 0.428l-0.238-0.027h414.897c1.816-0.255 3.914-0.401 6.045-0.401 25.263 0 45.743 20.48 45.743 45.743s-20.48 45.743-45.743 45.743c-2.132 0-4.23-0.146-6.284-0.428l0.238 0.027h-160.502v299.335l50.558 71.423 113.154 160.502 76.238 112.351 4.815 6.42c16.853 23.273 33.705 47.348 49.755 71.423l93.091 136.426zM208.652 859.371h553.73l-40.125-55.373-48.15-69.818c-13.004-1.531-28.068-2.405-43.335-2.405s-30.331 0.874-45.144 2.574l1.808-0.169c-44.94 6.42-87.473 20.865-130.809 30.495-32.756 8.494-70.36 13.371-109.103 13.371-30.964 0-61.201-3.115-90.413-9.048l2.902 0.492c-20.267-5.138-37.376-10.904-53.902-17.792l2.542 0.939-25.68 37.718-49.755 70.621zM589.843 618.619c-37.718-54.571-75.436-108.339-113.956-160.502l-31.298-44.94-18.458 26.483-113.154 160.502c-17.655 25.68-35.31 50.558-53.768 75.436 11.896 4.133 26.217 7.76 40.935 10.213l1.598 0.22c13.483 1.536 29.109 2.413 44.94 2.413s31.458-0.876 46.834-2.584l-1.893 0.171c36.113-5.618 70.621-15.248 105.129-24.075 31.507-8.612 68.701-15.15 106.855-18.305l2.286-0.152-16.050-22.47z" />
<glyph unicode="&#xe925;" glyph-name="cat-gastronomy" horiz-adv-x="1297" d="M647.986 813.959c-243.391-2.067-439.9-199.853-439.9-443.536 0-244.966 198.584-443.551 443.551-443.551 244.961 0 443.542 198.576 443.551 443.535v0c0 0.005 0 0.010 0 0.015 0 244.966-198.584 443.551-443.551 443.551-1.284 0-2.566-0.005-3.847-0.016l0.196 0.001zM647.986-7.432c-207.667 0.001-376.013 168.348-376.013 376.014s168.347 376.014 376.014 376.014c207.667 0 376.014-168.347 376.014-376.014 0-0.321 0-0.642-0.001-0.963v0.050c-1.551-205.982-168.891-372.365-375.092-372.365-0.324 0-0.649 0-0.973 0.001h0.050zM647.986 677.060c-169.863 0-307.565-137.702-307.565-307.565s137.702-307.565 307.565-307.565c169.863 0 307.565 137.702 307.565 307.565v0c0 169.863-137.702 307.565-307.565 307.565v0zM647.986 129.467c-132.057 0.004-239.109 107.058-239.109 239.116 0 132.060 107.056 239.116 239.116 239.116 131.418 0 238.075-106.018 239.108-237.193l0.001-0.098c0.004-0.542 0.007-1.184 0.007-1.825 0-132.060-107.056-239.116-239.116-239.116-0.002 0-0.005 0-0.007 0v0zM135.986 629.602v-638.859h-67.537v638.859l-68.449 68.449v219.037h68.449v-190.745l33.768-34.681 33.768 34.681v190.745h68.449v-219.037zM1194.667 950.857c-55.263-1.527-99.48-46.69-99.48-102.181 0-0.013 0-0.026 0-0.039v0.002-136.898c2.093-42.046 29.292-77.238 66.827-91.037l0.709-0.228v-620.606h68.449v616.043c38.623 13.744 66.205 49.014 68.438 91.011l0.011 0.255v141.462c0 0.011 0 0.024 0 0.037 0 56.453-45.764 102.217-102.217 102.217-0.963 0-1.922-0.013-2.879-0.040l0.141 0.003zM1228.435 711.741c-2.793-16.591-17.051-29.073-34.225-29.073s-31.432 12.483-34.196 28.87l-0.028 0.204v136.898c2.793 16.591 17.051 29.073 34.225 29.073s31.432-12.483 34.196-28.87l0.028-0.204z" />
<glyph unicode="&#xe926;" glyph-name="cat-coffee" horiz-adv-x="1004" d="M457.44 792.596c14.1 13.9 22.834 33.21 22.834 54.56s-8.734 40.66-22.825 54.552l-0.009 0.009c-5.285 5.129-8.565 12.299-8.565 20.234s3.28 15.106 8.558 20.228l0.007 0.007c5.246 5.325 12.536 8.624 20.596 8.624s15.35-3.299 20.592-8.62l0.003-0.004c24.142-24.401 39.057-57.973 39.057-95.029s-14.915-70.628-39.068-95.041l0.012 0.012c-14.1-13.9-22.834-33.21-22.834-54.56s8.734-40.66 22.825-54.552l0.009-0.009c4.994-5.393 8.057-12.637 8.057-20.596s-3.063-15.202-8.075-20.615l0.018 0.020c-5.246-5.325-12.536-8.624-20.596-8.624s-15.35 3.299-20.592 8.62l-0.003 0.004c-24.531 24.358-39.716 58.101-39.716 95.39s15.185 71.032 39.708 95.383l0.008 0.008zM630.876 749.237c-18.224-18.617-29.47-44.128-29.47-72.265s11.246-53.649 29.487-72.284l-0.018 0.018c5.33-7.052 13.701-11.562 23.125-11.562 15.964 0 28.906 12.942 28.906 28.906 0 9.424-4.51 17.795-11.49 23.072l-0.073 0.053c-8.346 8.58-13.493 20.31-13.493 33.242s5.147 24.662 13.504 33.253l-0.011-0.011c18.224 18.617 29.47 44.128 29.47 72.265s-11.246 53.649-29.487 72.284l0.018-0.018c-4.771 3.609-10.804 5.781-17.344 5.781-15.964 0-28.906-12.942-28.906-28.906 0-6.54 2.172-12.573 5.834-17.416l-0.053 0.073c8.346-8.58 13.493-20.31 13.493-33.242s-5.147-24.662-13.504-33.253l0.011 0.011zM284.725 604.706c4.771-3.609 10.804-5.781 17.344-5.781 15.964 0 28.906 12.942 28.906 28.906 0 6.54-2.172 12.573-5.834 17.416l0.053-0.073c-8.346 8.58-13.493 20.31-13.493 33.242s5.147 24.662 13.504 33.253l-0.011-0.011c17.895 18.763 28.906 44.228 28.906 72.265s-11.011 53.502-28.946 72.307l0.039-0.042c-5.33 7.052-13.701 11.562-23.125 11.562-15.964 0-28.906-12.942-28.906-28.906 0-9.424 4.51-17.795 11.49-23.072l0.073-0.053c8.346-8.58 13.493-20.31 13.493-33.242s-5.147-24.662-13.504-33.253l0.011 0.011c-18.224-18.617-29.47-44.128-29.47-72.265s11.246-53.649 29.487-72.284l-0.018 0.018zM0-44.96c0.374 15.961 13.013 28.852 28.836 29.626l0.070 0.003h201.62c-61.214 40.323-107.209 99.418-130.15 168.991l-0.65 2.278c0 5.059 0 10.84-5.781 16.621-23.499 79.529-40.446 172.396-47.436 268.028l-0.259 4.412c-0.085 1.377-0.134 2.986-0.134 4.607 0 20.839 8.019 39.805 21.138 53.98l-0.048-0.052c14.522 15.433 35.020 25.101 57.777 25.293h650.423c0.087 0 0.191 0.001 0.294 0.001 22.737 0 43.203-9.723 57.468-25.238l0.051-0.056c13.478-14.317 21.761-33.657 21.761-54.932 0-1.267-0.029-2.528-0.088-3.781l0.007 0.177c0-19.512 0-40.469-5.781-60.703h18.066c76.629 0 138.749-62.12 138.749-138.749v0c-0.023-11.827-1.604-23.275-4.548-34.163l0.212 0.921c-16.705-59.219-70.251-101.896-133.766-101.896-0.228 0-0.456 0.001-0.683 0.002h-85.238c-27.121-51.812-65.849-94.243-112.914-124.967l-1.265-0.775h199.452c15.964 0 28.906-12.942 28.906-28.906s-12.942-28.906-28.906-28.906h-838.278c-15.964 0-28.906 12.942-28.906 28.906v0zM805.036 168.223h62.148c43.898 1.035 79.088 36.866 79.088 80.916 0 37.1-24.962 68.37-59.007 77.931l-0.57 0.137c-2.927 0.339-6.319 0.533-9.756 0.533s-6.829-0.193-10.165-0.57l0.409 0.038h-24.57c-10.268-63.614-22.34-117.52-37.231-170.244l2.543 10.538zM416.248-13.163h66.484c0.429-0.002 0.938-0.004 1.446-0.004 124.117 0 229.203 81.485 264.678 193.877l0.535 1.966c22.751 78.413 38.953 169.884 45.308 264.056l0.219 4.049c-0.049 6.064-2.224 11.61-5.815 15.94l0.034-0.042c-4.156 4.028-9.831 6.51-16.084 6.51-0.189 0-0.377-0.002-0.564-0.007l0.028 0.001h-650.388c-0.16 0.004-0.348 0.006-0.537 0.006-6.254 0-11.928-2.483-16.091-6.516l0.006 0.006c-3.557-4.288-5.733-9.834-5.781-15.888v-0.011c7.063-97.409 23.497-187.817 48.563-274.563l-2.313 9.349c1.421-5.58 3.151-10.391 5.278-14.98l-0.219 0.527c38.009-108.152 139.264-184.297 258.304-184.297 1.159 0 2.317 0.007 3.472 0.022l-0.175-0.002z" />
<glyph unicode="&#xe927;" glyph-name="whatsapp" d="M477.867 681.643c-115.454-19.942-202.165-119.341-202.165-238.992 0-50.969 15.735-98.264 42.611-137.29l-0.531 0.816c2.071-2.753 3.316-6.229 3.316-9.996 0-2.304-0.466-4.5-1.309-6.498l0.041 0.11c-9.216-26.283-18.091-52.565-27.648-80.896l11.947 3.413c25.259 8.192 50.176 16.384 75.435 23.893 1.768 0.73 3.821 1.154 5.973 1.154s4.205-0.424 6.080-1.192l-0.107 0.039c36.761-23.476 81.584-37.417 129.663-37.417 134.41 0 243.371 108.961 243.371 243.371s-108.961 243.371-243.371 243.371c-15.308 0-30.285-1.413-44.809-4.116l1.504 0.232zM614.4 309.59c-5.39-1.030-11.59-1.62-17.927-1.62-10.41 0-20.448 1.59-29.885 4.542l0.709-0.191c-66.296 18.222-121.139 58.974-157.063 113.328l-0.633 1.019c-13.87 17.394-24.464 38.067-30.457 60.616l-0.263 1.165c-1.039 5.451-1.888 12.122-2.358 18.898l-0.031 0.558c0.923 20.106 8.928 38.181 21.559 51.943l-0.055-0.060c8.109 8.58 19.568 13.92 32.274 13.92 2.586 0 5.12-0.221 7.585-0.646l-0.264 0.038c4.701-1.342 8.479-4.562 10.538-8.776l0.044-0.099q13.312-29.355 24.576-58.368c0.73-1.768 1.154-3.821 1.154-5.973s-0.424-4.205-1.192-6.080l0.039 0.107c-5.123-8.099-10.408-15.121-16.2-21.686l0.157 0.182c-3.044-2.396-4.981-6.081-4.981-10.218 0-3.128 1.107-5.997 2.951-8.237l-0.018 0.022c22.3-37.213 55.723-65.787 95.627-81.466l1.312-0.454c1.57-0.882 3.445-1.402 5.442-1.402 3.807 0 7.173 1.888 9.212 4.78l0.024 0.036c6.827 8.533 14.336 16.725 20.821 25.6 2.057 3.778 5.998 6.299 10.527 6.299 1.881 0 3.661-0.435 5.245-1.21l-0.071 0.031c19.797-9.216 39.936-18.432 59.392-28.672 2.969-2.639 4.83-6.468 4.83-10.731 0-0.428-0.019-0.851-0.055-1.27l0.004 0.054c-2.084-28.894-24.088-52.067-52.248-55.943l-0.317-0.036zM1020.928 637.611c-1.013 44.98-9.563 87.659-24.428 127.248l0.876-2.662c-13.749 35.348-33.807 65.494-59.027 90.43l-0.024 0.023c-24.919 25.485-55.228 45.59-89.093 58.482l-1.702 0.569c-36.803 14.255-79.37 22.937-123.84 23.886l-0.405 0.007c-54.613 3.072-72.021 3.072-211.285 3.072s-156.331 0-210.944-3.072c-44.864-0.884-87.441-9.572-126.788-24.756l2.543 0.863c-35.599-13.372-65.923-33.491-90.741-58.995l-0.054-0.055c-25.477-24.811-45.579-55.007-58.482-88.761l-0.568-1.692c-14.114-36.904-22.781-79.568-23.884-124.109l-0.009-0.478c-3.072-54.613-3.072-72.021-3.072-210.944s0-156.331 3.072-210.944c1.112-45.019 9.779-87.683 24.774-127.234l-0.881 2.647c13.472-35.446 33.574-65.642 58.996-90.401l0.054-0.053c24.871-25.56 55.196-45.679 89.108-58.491l1.687-0.559c36.805-14.321 79.381-23.009 123.873-23.888l0.372-0.006c54.613-2.389 72.021-3.072 210.944-3.072s156.672 0 211.285 3.072c44.875 0.957 87.442 9.638 126.815 24.761l-2.57-0.868c35.567 13.461 65.875 33.565 90.75 59.005l0.045 0.046c25.244 24.959 45.302 55.105 58.452 88.715l0.599 1.739c13.989 36.927 22.539 79.606 23.544 124.147l0.008 0.439c3.072 54.613 3.072 72.021 3.072 210.944s0 156.331-3.072 210.944zM570.368 159.744c-15.606-3.010-33.554-4.732-51.905-4.732-48.66 0-94.492 12.107-134.649 33.474l1.55-0.753c-2.162 0.963-4.685 1.524-7.339 1.524s-5.177-0.561-7.456-1.57l0.118 0.047-152.917-48.128c7.509 21.504 14.336 41.643 21.163 61.781 9.557 28.672 19.456 57.344 28.672 86.016 0.73 1.768 1.154 3.821 1.154 5.973s-0.424 4.205-1.192 6.080l0.039-0.107c-24.64 41.808-39.195 92.11-39.195 145.811 0 160.613 130.203 290.816 290.816 290.816s290.816-130.203 290.816-290.816c0-142.172-102.021-260.517-236.847-285.818l-1.803-0.281z" />
<glyph unicode="&#xe928;" glyph-name="check" d="M823.168 712.832l-439.168-439.168-183.168 183.168c-16.683 16.683-43.691 16.683-60.331 0s-16.683-43.691 0-60.331l213.333-213.333c16.683-16.683 43.691-16.683 60.331 0l469.333 469.333c16.683 16.683 16.683 43.691 0 60.331s-43.691 16.683-60.331 0z" />
<glyph unicode="&#xe93d;" glyph-name="cat-market" horiz-adv-x="1269" d="M234.41-73.143c-0.349-0.013-0.758-0.020-1.17-0.020-16.948 0-30.955 12.59-33.179 28.928l-0.019 0.173-96.055 591.312h-69.618c-16.932 2.777-29.694 17.303-29.694 34.809s12.762 32.032 29.489 34.781l0.204 0.028h150.692l101.343 264.372c5.097 13.37 17.735 22.732 32.584 22.912h145.426v22.031c0.47 13.434 11.24 24.205 24.631 24.673l0.044 0.001h289.046c0.005 0 0.010 0 0.015 0 13.804 0 25.052-10.945 25.539-24.63l0.001-0.045v-22.031h144.523c0.338 0.012 0.734 0.019 1.132 0.019 14.391 0 26.661-9.077 31.398-21.819l0.075-0.232 101.343-264.372h151.573c16.932-2.777 29.694-17.303 29.694-34.809s-12.762-32.032-29.489-34.781l-0.204-0.028h-69.618l-96.055-591.312c-3.016-16.524-17.221-28.911-34.35-29.081h-0.018zM264.372-4.406h742.885l88.124 551.656h-919.133zM264.372 612.461h751.697l-88.124 218.547h-121.611v-22.031c-0.489-13.73-11.736-24.675-25.541-24.675-0.005 0-0.011 0-0.016 0h-289.927c-13.627 0-24.675 11.047-24.675 24.675v0 26.437h-122.492z" />
<glyph unicode="&#xe93e;" glyph-name="cat-services" horiz-adv-x="954" d="M292.071 574.737h50.43c3.419-15.677 8.243-29.479 14.502-42.46l-0.494 1.136-35.021-35.021c-3.273-3.593-5.278-8.391-5.278-13.658s2.004-10.065 5.292-13.674l-0.015 0.016 76.345-75.644c3.527-3.426 8.346-5.538 13.658-5.538s10.131 2.112 13.663 5.542l-0.005-0.005 34.32 35.021c11.506-5.188 25.477-10.207 39.874-14.2l2.151-0.509v-50.43c0-10.444 8.467-18.911 18.911-18.911v0h109.964c10.444 0 18.911 8.467 18.911 18.911v0 49.729c16.4 4.349 30.377 9.373 43.792 15.421l-1.767-0.713 34.32-34.32c3.347-3.631 8.025-5.99 13.254-6.301l0.054-0.003c1.286-0.388 2.765-0.611 4.295-0.611 2.799 0 5.424 0.746 7.687 2.051l-0.075-0.040 77.746 77.045c3.596 3.448 5.831 8.292 5.831 13.658s-2.235 10.21-5.824 13.652l-0.007 0.006-34.32 35.721c4.893 11.228 9.678 24.977 13.501 39.122l0.507 2.202h50.43c10.444 0 18.911 8.467 18.911 18.911v0 112.066c0 10.444-8.467 18.911-18.911 18.911v0h-51.83c-3.493 12.287-8.029 22.98-13.69 32.951l0.382-0.732 36.421 45.527c3.037 3.437 4.89 7.981 4.89 12.958s-1.854 9.521-4.909 12.979l0.018-0.021-77.746 76.345c-3.448 3.596-8.292 5.831-13.658 5.831s-10.21-2.235-13.652-5.824l-0.006-0.007-34.32-34.32c-11.905 5.479-25.925 10.29-40.484 13.704l-1.541 0.305v50.43c0 0.004 0 0.008 0 0.013 0 10.198-8.072 18.511-18.176 18.897l-0.035 0.001h-113.466c-8.797-1.979-15.29-9.67-15.409-18.898v-51.143c-16.322-4.020-30.325-8.819-43.757-14.682l1.733 0.674-34.32 35.021c-3.333 3.561-8.061 5.78-13.308 5.78s-9.975-2.219-13.298-5.769l-0.009-0.010-77.045-76.345c-2.906-3.488-4.67-8.017-4.67-12.958s1.764-9.469 4.696-12.99l-0.027 0.033 37.122-45.527c-5.279-9.239-9.814-19.932-13.051-31.176l-0.257-1.043h-53.231c-0.209 0.008-0.454 0.013-0.7 0.013-10.444 0-18.911-8.467-18.911-18.911 0-0.005 0-0.009 0-0.014v0.001-109.264c0-0.004 0-0.008 0-0.013 0-10.444 8.467-18.911 18.911-18.911 0.246 0 0.492 0.005 0.736 0.014l-0.035-0.001zM375.42 698.709c4.183 18.539 10.951 34.921 20.018 49.743l-0.406-0.715c2.144 3.025 3.427 6.791 3.427 10.856s-1.283 7.832-3.466 10.915l0.040-0.059-34.32 41.324 51.13 50.43 30.118-30.118c3.196-2.354 7.212-3.767 11.557-3.767s8.36 1.413 11.611 3.805l-0.054-0.038c15.096 7.347 32.661 13.391 51.030 17.247l1.501 0.264h7.705c8.28 2.183 14.348 9.441 14.707 18.172l0.001 0.039v45.527h70.041v-46.227c0.025-8.679 5.893-15.98 13.875-18.179l0.133-0.031 6.304-2.101c20.091-3.997 37.906-10.051 54.58-18.097l-1.348 0.587c3.227-2.258 7.234-3.608 11.557-3.608s8.329 1.35 11.622 3.652l-0.066-0.044 30.118 30.118 50.43-50.43-32.919-42.025c-1.996-2.951-3.187-6.59-3.187-10.506s1.191-7.555 3.23-10.573l-0.043 0.067c8.661-14.108 15.429-30.489 19.402-47.934l0.21-1.094c2.4-8.543 9.849-14.807 18.848-15.406l0.063-0.003h47.628v-70.041h-46.227c-0.192 0.007-0.417 0.011-0.644 0.011-8.705 0-16.036-5.881-18.236-13.886l-0.031-0.133v-7.004c-3.853-20.026-10.164-37.856-18.729-54.327l0.518 1.096c-2.459-3.16-3.942-7.185-3.942-11.557s1.483-8.397 3.974-11.599l-0.032 0.043 30.118-30.118-49.029-49.729-30.118 30.118c-3.118 2.575-7.155 4.137-11.557 4.137s-8.439-1.562-11.588-4.162l0.031 0.025c-15.817-6.067-34.272-10.735-53.421-13.182l-1.211-0.126h-5.603c-8.115-2.231-13.983-9.532-14.008-18.208v-48.331h-70.041v46.927c-0.361 8.77-6.429 16.028-14.572 18.18l-0.137 0.031h-5.603c-20.61 4.12-38.892 10.417-55.963 18.801l1.331-0.591c-3.118 2.575-7.155 4.137-11.557 4.137s-8.439-1.562-11.588-4.162l0.031 0.025-30.118-30.118-49.029 49.729 30.118 30.118c2.459 3.16 3.942 7.185 3.942 11.557s-1.483 8.397-3.974 11.599l0.032-0.043c-7.459 15.325-13.513 33.14-17.268 51.788l-0.243 1.444v7.004c-2.231 8.115-9.532 13.983-18.208 14.008h-46.93v70.041h46.227c9.051 0.185 16.528 6.701 18.191 15.29l0.019 0.119zM575.037 520.105c70.789 0 128.175 57.386 128.175 128.175s-57.386 128.175-128.175 128.175c-70.789 0-128.175-57.386-128.175-128.175v0c0-70.789 57.386-128.175 128.175-128.175v0zM485.384 648.28c-0.002 0.207-0.003 0.452-0.003 0.698 0 49.901 40.452 90.353 90.353 90.353s90.353-40.452 90.353-90.353c0-49.901-40.452-90.353-90.353-90.353-0.245 0-0.49 0.001-0.735 0.003h0.038c-49.514 0-89.653 40.139-89.653 89.653v0zM937.85 224.531c-8.644 8.034-19.237 14.091-30.986 17.383l-0.532 0.127c-12.532 4.072-26.953 6.42-41.922 6.42-2.007 0-4.004-0.042-5.99-0.126l0.284 0.009c-28.892-2.537-55.317-11.058-78.705-24.314l0.96 0.5-28.717-14.709c-8.974 29.051-35.59 49.793-67.050 49.793-1.052 0-2.098-0.023-3.139-0.069l0.148 0.005h-197.516c-36.225 28.216-80.985 47.127-129.83 52.43l-1.147 0.101c-48.279 8.076-103.904 12.691-160.608 12.691-4.604 0-9.201-0.030-13.791-0.091l0.697 0.007v24.514c0 10.444-8.467 18.911-18.911 18.911v0h-145.685c-8.833-1.707-15.412-9.378-15.412-18.585 0-0.115 0.001-0.229 0.003-0.344v0.017-308.881c0-10.444 8.467-18.911 18.911-18.911v0h140.082c0.060-0.001 0.13-0.001 0.201-0.001 6.012 0 11.316 3.030 14.469 7.645l0.039 0.060 8.405-5.603c75.561-62.455 173.431-100.339 280.148-100.339 4.439 0 8.862 0.066 13.269 0.196l-0.646-0.015c104.497 8.431 199.945 40.675 282.997 91.255l-2.832-1.603c57.978 30.254 106.309 59.536 152.695 91.443l-4.909-3.191c15.185 9.035 28.133 19.976 39.048 32.71l0.175 0.209c7.969 12.615 12.698 27.966 12.698 44.422 0 1.374-0.033 2.74-0.098 4.098l0.007-0.192c0.003 0.197 0.004 0.431 0.004 0.664 0 14.864-6.174 28.287-16.097 37.843l-0.017 0.016zM760.646 166.397s16.81 10.506 37.822 21.012c17.652 9.303 38.166 16.172 59.851 19.476l1.084 0.136c0.279 0.002 0.609 0.003 0.939 0.003 12.877 0 25.336-1.791 37.141-5.138l-0.958 0.232c5.967-1.733 11.126-4.627 15.452-8.443l-0.043 0.038c3.015-2.585 4.914-6.398 4.914-10.655 0-0.194-0.004-0.387-0.012-0.58l0.001 0.028c0.196-1.432 0.308-3.088 0.308-4.769 0-7.91-2.474-15.242-6.691-21.265l0.079 0.12c-8.432-9.25-18.119-17.153-28.839-23.497l-0.578-0.317c-40.234-27.904-87.184-56.48-135.787-82.361l-7.797-3.789c-74.702-44.384-162.796-74.779-256.914-85.186l-2.939-0.264c-3.246-0.096-7.065-0.151-10.897-0.151-98.336 0-188.235 36.123-257.151 95.824l0.492-0.417-28.717 19.611v210.123c3.249 0.034 7.089 0.054 10.933 0.054 55.693 0 110.431-4.093 163.927-11.996l-6.061 0.735c44.295-4.733 83.865-21.923 115.98-47.951l-0.412 0.324c3.506-3.788 8.466-6.187 13.987-6.303h210.144c2.116 0.445 4.548 0.7 7.039 0.7 19.728 0 35.721-15.993 35.721-35.721s-15.993-35.721-35.721-35.721c-2.491 0-4.923 0.255-7.27 0.74l0.231-0.040h-322.189c-9.831-0.744-17.525-8.904-17.525-18.86 0-0.264 0.005-0.527 0.016-0.789l-0.001 0.037c0.374-10.678 8.934-19.238 19.577-19.611l0.035-0.001h314.484c0.464-0.011 1.010-0.017 1.558-0.017 33.479 0 61.471 23.489 68.397 54.885l0.086 0.465h5.603zM38.523 330.293h101.56v-266.856h-101.56z" />
<glyph unicode="&#xe93f;" glyph-name="points" horiz-adv-x="1021" d="M138.927 938.667c-16.321-1.767-28.974-15.261-29.407-31.799l-0.001-0.043-3.448-125.947-94.916-83.762c-6.894-6.019-11.225-14.823-11.225-24.638 0-15.029 10.154-27.687 23.975-31.487l0.229-0.054 122.702-32.856 47.052-113.778c5.131-11.866 16.735-20.018 30.244-20.018 4.605 0 8.988 0.947 12.966 2.658l-0.214-0.082c5.47 2.198 10.005 5.754 13.327 10.26l0.059 0.084 75.852 101.406 124.932 14.805c16.406 1.886 29.027 15.695 29.027 32.451 0 1.358-0.083 2.696-0.244 4.010l0.016-0.158c-0.741 6.18-3.065 11.709-6.551 16.308l0.061-0.083-75.243 97.35 32.856 122.499c0.742 2.604 1.169 5.595 1.169 8.685 0 15.32-10.485 28.19-24.67 31.828l-0.228 0.050c-2.737 0.772-5.88 1.215-9.127 1.215s-6.39-0.444-9.372-1.273l0.245 0.058-119.862-40.562-111.141 58.816c-4.496 2.554-9.877 4.059-15.609 4.059-0.145 0-0.29-0.001-0.435-0.003h0.022zM164.278 871.13l87.007-47.458c5.136-2.929 11.286-4.656 17.84-4.656 4.289 0 8.406 0.74 12.229 2.099l-0.255-0.079 85.587 29.002-24.135-89.643c-0.81-2.918-1.276-6.268-1.276-9.727 0-8.664 2.921-16.645 7.831-23.014l-0.065 0.088 56.585-73.012-93.294-11.357c-10.452-1.052-19.493-6.347-25.491-14.112l-0.063-0.085-55.773-75.852-35.289 85.79c-4.516 10.727-13.566 18.778-24.682 21.842l-0.263 0.062-89.643 23.932 67.537 59.83c7.817 6.479 12.942 15.969 13.583 26.667l0.005 0.104zM898.662 816.98c-5.112-0.242-9.832-1.717-13.932-4.133l0.141 0.077-85.992-45.43-93.294 31.436c-2.886 0.919-6.205 1.448-9.648 1.448-14.155 0-26.219-8.951-30.841-21.502l-0.073-0.228c-0.866-2.823-1.365-6.069-1.365-9.431s0.499-6.607 1.426-9.666l-0.061 0.236 24.54-95.119-58.207-75.446c-4.22-5.494-6.763-12.468-6.763-20.036 0-10.522 4.916-19.895 12.575-25.95l0.069-0.053c4.484-3.337 9.924-5.644 15.839-6.469l0.183-0.021 96.944-11.357 59.221-78.488c6.023-7.91 15.446-12.965 26.050-12.965 7.473 0 14.36 2.511 19.864 6.735l-0.078-0.057c4.536 3.431 8.078 7.95 10.265 13.176l0.078 0.21 36.303 87.818 94.916 25.757c13.961 3.915 24.028 16.528 24.028 31.493 0 9.733-4.258 18.471-11.013 24.453l-0.034 0.030-73.418 64.9-3.448 97.958c-0.668 17.731-15.203 31.852-33.036 31.852-0.293 0-0.585-0.004-0.876-0.011l0.043 0.001zM881.828 756.136l2.231-73.621c0.084-11.925 5.301-22.614 13.549-29.982l0.039-0.035 48.472-42.185-64.292-16.428c-12.516-3.318-22.477-12.147-27.281-23.664l-0.099-0.268-25.554-62.061-40.562 54.759c-6.667 8.715-16.641 14.61-28.015 15.804l-0.176 0.015-67.131 8.112 40.562 53.137c5.286 6.783 8.475 15.426 8.475 24.813 0 3.726-0.502 7.334-1.443 10.761l0.067-0.285-17.036 64.292 60.844-20.281c3.939-1.403 8.483-2.213 13.216-2.213 7.046 0 13.672 1.796 19.445 4.956l-0.211-0.106zM507.031 492.48c-10.662-0.858-19.784-6.752-25.069-15.275l-0.080-0.139-89.643-146.836-169.146-33.87c-15.055-3.109-26.213-16.257-26.213-32.011 0-2.309 0.24-4.562 0.695-6.736l-0.037 0.213c1.263-6.643 4.437-12.398 8.921-16.83l121.69-121.69-22.107-166.915c-0.184-1.306-0.289-2.815-0.289-4.349 0-16.603 12.315-30.329 28.308-32.543l0.172-0.019c1.321-0.197 2.846-0.309 4.397-0.309 4.651 0 9.067 1.010 13.039 2.823l-0.197-0.080 159.005 67.537 158.802-68.145c3.784-1.648 8.193-2.607 12.826-2.607 13.443 0 25 8.073 30.088 19.635l0.083 0.211c1.666 3.981 2.634 8.607 2.634 13.459 0 1.332-0.073 2.646-0.215 3.94l0.014-0.16-22.309 166.915 121.687 121.687c5.939 5.945 9.613 14.154 9.613 23.222s-3.673 17.277-9.613 23.222v0c-4.504 4.378-10.226 7.525-16.61 8.884l-0.223 0.040-168.537 34.478-90.049 146.431c-5.89 9.646-16.359 15.987-28.31 15.987-1.172 0-2.331-0.061-3.472-0.18l0.143 0.012zM509.87 411.355l74.635-121.687c5.122-8.218 13.289-14.129 22.886-16.183l0.234-0.042 131.625-26.366-97.147-97.553c-6.437-6.364-10.424-15.195-10.424-24.957 0-1.569 0.103-3.114 0.303-4.629l-0.019 0.178 18.456-134.667-126.149 53.948c-4.093 1.824-8.869 2.886-13.893 2.886s-9.8-1.062-14.115-2.974l0.223 0.088-126.149-53.948 18.050 134.87c0.141 1.193 0.221 2.574 0.221 3.974 0 9.938-4.038 18.932-10.563 25.432l-0.001 0.001-97.147 97.553 131.625 26.366c9.85 2.048 18.033 7.974 23.033 16.073l0.087 0.152zM120.065 147.698h81.125c16.802 0 30.422-13.62 30.422-30.422s-13.62-30.422-30.422-30.422h-81.125c-16.802 0-30.422 13.62-30.422 30.422s13.62 30.422 30.422 30.422zM829.908 147.698h81.125c16.802 0 30.422-13.62 30.422-30.422s-13.62-30.422-30.422-30.422h-81.125c-16.802 0-30.422 13.62-30.422 30.422s13.62 30.422 30.422 30.422z" />
<glyph unicode="&#xe940;" glyph-name="frequency" horiz-adv-x="949" d="M753.096 675.653c14.933 0.797 27.906 8.529 35.844 20.010l0.101 0.155c6.41 7.819 10.295 17.921 10.295 28.932 0 25.295-20.506 45.801-45.801 45.801-14.285 0-27.043-6.54-35.443-16.789l-0.064-0.081c-6.438-7.802-10.343-17.902-10.343-28.914 0-14.077 6.38-26.664 16.407-35.026l0.073-0.059c7.476-7.66 17.511-12.791 28.721-14.009l0.21-0.019zM876.712 566.064c13.755 8.236 22.82 23.059 22.82 39.999 0 8.51-2.288 16.486-6.282 23.345l0.119-0.221c-7.942 14.074-22.798 23.422-39.837 23.422-8.237 0-15.963-2.184-22.632-6.006l0.223 0.118c-15.972-7.581-26.818-23.578-26.818-42.107 0-25.662 20.803-46.466 46.466-46.466 9.677 0 18.663 2.958 26.103 8.019l-0.162-0.104zM906.521 354.777c-1.723 0.227-3.717 0.356-5.74 0.356-23.313 0-42.617-17.169-45.955-39.553l-0.031-0.255c-37.132-176.846-191.814-307.726-377.065-307.726-212.562 0-384.877 172.315-384.877 384.877s172.315 384.877 384.877 384.877c0.028 0 0.055 0 0.083 0h11.393v-56.986c0-5.951 1.976-11.44 5.308-15.847l-0.048 0.066c5.123-7.424 13.582-12.227 23.163-12.227 6.11 0 11.765 1.953 16.372 5.27l-0.083-0.057 130.63 95.562c2.781 1.902 5.112 4.233 6.956 6.924l0.058 0.090c3.259 4.524 5.213 10.178 5.213 16.289 0 9.581-4.803 18.041-12.133 23.102l-0.094 0.061-130.63 93.808c-4.632 3.29-10.403 5.26-16.634 5.26-0.008 0-0.016 0-0.024 0h0.001c-15.494 0-28.055-12.561-28.055-28.055v0-42.082h-11.397c-263.312-0.119-476.723-213.603-476.723-476.931 0-263.402 213.53-476.932 476.932-476.932 229.259 0 420.737 161.761 466.525 377.374l0.555 3.12s0 5.26 0 7.89c0.214 1.659 0.336 3.579 0.336 5.527 0 23.443-17.695 42.754-40.458 45.304l-0.207 0.019zM858.301 453.845v0c2.284-22.995 21.359-40.853 44.677-41.205h7.049c22.639 3.37 39.808 22.673 39.808 45.986 0 2.023-0.129 4.016-0.38 5.971l0.024-0.232c-3.758 22.71-23.251 39.816-46.74 39.816-2.066 0-4.102-0.132-6.099-0.389l0.236 0.025c-22.275-3.247-39.191-22.217-39.191-45.138 0-2.636 0.224-5.221 0.653-7.735l-0.038 0.27zM587.397 534.503l-6.137-5.26-175.342-175.342-38.575 38.575c-7.612 6.541-17.587 10.523-28.492 10.523-0.154 0-0.309-0.001-0.463-0.002h0.023c-0.837 0.054-1.814 0.084-2.798 0.084-25.662 0-46.466-20.803-46.466-46.466 0-12.24 4.733-23.375 12.468-31.674l-0.026 0.028 71.014-71.89c8.177-8.9 19.539-14.762 32.267-15.77l0.171-0.011c13.389 0.819 25.169 7.086 33.259 16.591l0.056 0.067 214.795 215.671c6.706 7.999 10.779 18.403 10.779 29.758 0 13.999-6.19 26.552-15.983 35.071l-0.056 0.048c-8.057 6.552-18.443 10.521-29.757 10.521-0.018 0-0.036 0-0.054 0h0.003c-0.183 0.002-0.399 0.004-0.615 0.004-11.416 0-21.905-3.967-30.164-10.598l0.094 0.073z" />
<glyph unicode="&#xe941;" glyph-name="birthday" horiz-adv-x="910" d="M909.932 301.279v0c0 0.097 0 0.212 0 0.327 0 26.665-6.772 51.748-18.689 73.624l0.403-0.808c-11.873 21.601-27.666 39.619-46.58 53.674l-0.44 0.313c-17.157 13.1-37.643 22.801-59.933 27.677l-1.019 0.187c-6.783 0.626-14.669 0.983-22.639 0.983s-15.856-0.357-23.644-1.056l1.005 0.073h-181.986v126.259c-2.739 28.714-26.575 51.040-55.694 51.374h-87.109c-30.208-0.956-54.391-25.442-54.857-55.683l-0.001-0.045v-118.422h-191.565c-1.594 0.047-3.47 0.073-5.352 0.073-16.020 0-31.589-1.931-46.487-5.574l1.336 0.276c-25.189-8.018-46.786-21.184-64.476-38.352l0.040 0.039c-32.28-28.982-52.492-70.848-52.492-117.434 0-3.104 0.090-6.188 0.267-9.248l-0.020 0.423c2.208-28.764 11.65-54.943 26.492-77.215l-0.37 0.59c6.549-9.476 13.713-17.746 21.678-25.168l0.091-0.084v-174.15c-0.405-3.438-0.635-7.421-0.635-11.457 0-19.552 5.415-37.839 14.828-53.444l-0.26 0.465c14.578-20.271 37.916-33.451 64.356-33.958l0.079-0.001h657.415c26.745 1.406 50.127 14.678 65.146 34.608l0.16 0.222c8.198 13.034 13.062 28.884 13.062 45.87 0 0.098 0 0.196 0 0.295v-0.015 193.306c8.766 9.332 16.797 19.578 23.869 30.502l0.512 0.844c13.574 22.389 21.652 49.423 21.769 78.335v0.033zM211.592 223.783v0 0 0zM410.122 223.783v0zM609.524 225.524v0zM844.626 312.599s0 4.354 0 6.095 0 0 0-6.095zM827.211 357.878v0zM493.714 582.531v0zM417.088 573.823h76.626v-114.068h-75.755v104.49s0 6.095 0 9.578zM101.878 377.905v0zM87.075 359.619v8.707l8.707 7.837h4.354l17.415 9.578c6.741 2.616 14.657 4.741 22.856 6.012l0.654 0.083h624.327l23.51-6.095 16.544-9.578h4.354l8.707-7.837c3.351-2.483 6.224-5.356 8.629-8.597l0.078-0.11c3.41-4.993 6.61-10.71 9.296-16.709l0.283-0.706c2.844-7.407 5.262-16.186 6.841-25.253l0.125-0.869c0.204-1.569 0.321-3.383 0.321-5.224s-0.117-3.656-0.343-5.436l0.022 0.211s0-8.707 0-13.061c-1.777-8.902-3.882-16.494-6.468-23.86l0.373 1.22c-3.668-7.281-7.141-13.265-10.909-19.038l0.46 0.752c-2.174-3.375-4.773-6.251-7.767-8.653l-0.070-0.054-7.837-7.837c-5.206-3.382-11.215-6.588-17.497-9.278l-0.789-0.3c-6.548-2.738-14.175-4.868-22.115-6.032l-0.524-0.063h-30.476c-8.853 1.355-16.769 3.479-24.31 6.364l0.8-0.269-11.32-5.224-8.707 3.483-5.224 5.224-14.803 13.061c-5.709 5.909-13.704 9.578-22.556 9.578-0.029 0-0.059 0-0.088 0h0.005c-2.090 0.562-4.491 0.885-6.966 0.885s-4.876-0.323-7.16-0.929l0.194 0.044c-3.612-1.001-6.62-3.161-8.675-6.047l-0.033-0.048-10.449-11.32-5.224-5.224h-6.966l-10.449-5.224c-6.741-2.616-14.657-4.741-22.856-6.012l-0.654-0.083h-26.122c-7.785-2.037-16.763-3.296-26.004-3.481l-0.118-0.002-11.32 6.095h-5.224l-6.095 5.224-21.769 16.544c-5.709 5.909-13.704 9.578-22.556 9.578-0.029 0-0.059 0-0.088 0h0.005c-2.090 0.562-4.491 0.885-6.966 0.885s-4.876-0.323-7.16-0.929l0.194 0.044c-2.848-2.49-4.972-5.741-6.060-9.437l-0.036-0.142-10.449-11.32-5.224-5.224h-6.966l-10.449-5.224c-6.499-2.618-14.115-4.74-22.016-6.012l-0.623-0.083h-36.571c-8.524 1.355-16.14 3.477-23.375 6.353l0.736-0.258-11.32 6.095h-6.095l-6.095 5.224-17.415 10.449c-4.123 6.484-10.54 11.197-18.084 13.020l-0.202 0.041h-13.061c-6.086-2.642-10.927-7.202-13.859-12.905l-0.073-0.157-10.449-11.32-5.224-5.224h-6.095l-11.32-5.224h-10.449l-16.544-12.19h-26.122c-8.853 1.355-16.769 3.479-24.31 6.364l0.8-0.269-11.32 6.095h-12.19l-13.932 14.803c-0.055 1.040-0.086 2.258-0.086 3.483s0.031 2.443 0.093 3.653l-0.007-0.17c-3.611 5.027-6.823 10.759-9.365 16.84l-0.213 0.575c-2.853 6.701-5.263 14.58-6.844 22.754l-0.122 0.756c-0.415 4.046-0.651 8.744-0.651 13.497s0.237 9.45 0.698 14.081l-0.047-0.585c-0.687 5.808-1.079 12.535-1.079 19.354 0 2.993 0.076 5.969 0.225 8.925l-0.017-0.415c0 6.095 6.095 12.19 9.578 17.415v0zM118.422-19.156v0zM118.422-19.156v0zM768-19.156h-647.837v169.796c13.082-4.089 28.124-6.444 43.716-6.444 3.614 0 7.198 0.127 10.749 0.375l-0.478-0.027c20.429 2.814 38.92 8.309 56.094 16.182l-1.237-0.508c12.35 5.558 22.927 11.665 32.809 18.685l-0.592-0.399c18.2-14.834 40.185-25.762 64.261-31.15l1.045-0.196c10.054-2.061 21.609-3.241 33.44-3.241 19.169 0 37.616 3.097 54.865 8.819l-1.23-0.353c8.432 3.554 15.585 7.344 22.36 11.673l-0.591-0.353 21.769 14.803c18.148-14.951 40.159-25.9 64.294-31.162l1.012-0.185c8.546-1.486 18.387-2.336 28.427-2.336 21.032 0 41.192 3.728 59.857 10.56l-1.209-0.387c10.159 3.447 18.789 7.273 27.005 11.761l-0.882-0.441c8.32 4.888 15.428 9.776 22.17 15.109l-0.401-0.306c27.134-21.801 61.996-34.99 99.939-34.99 2.519 0 5.025 0.058 7.516 0.173l-0.353-0.013c11.353 1.005 21.731 2.853 31.777 5.518l-1.3-0.293h9.578v-160.218s0 0 0 0v0 0 0h-36.571zM798.476-19.156v0zM798.476-19.156v0zM485.007 664.381c47.883 14.006 82.333 57.349 82.721 108.799v0.045c-3.89 29.705-14.733 56.307-30.837 78.9l0.361-0.533c-14.803 23.51-32.218 45.279-49.633 66.177l-10.449 12.19c-5.648 4.629-12.945 7.435-20.898 7.435s-15.25-2.806-20.956-7.481l0.058 0.046c-10.449-12.19-20.898-24.381-30.476-37.442-20.466-25.102-37.99-53.799-51.34-84.72l-0.905-2.355c-4.248-11.086-6.708-23.909-6.708-37.308 0-26.728 9.79-51.169 25.981-69.932l-0.116 0.138c20.756-25.24 51.987-41.213 86.949-41.213 10.262 0 20.203 1.376 29.648 3.954l-0.788-0.183zM419.701 737.524v0zM490.231 732.3v0zM490.231 813.279c5.277-8.086 10.505-17.508 15.072-27.3l0.601-1.435v-12.19s0-4.354 0-6.966c0.136-1.824 0.214-3.95 0.214-6.095s-0.078-4.272-0.23-6.377l0.016 0.282-5.224-9.578s0 0 0-4.354v0l-10.449-6.095h-11.32c-2.094-0.416-4.502-0.654-6.966-0.654s-4.872 0.238-7.202 0.692l0.236-0.038-29.605-5.224c-4.015 1.542-7.457 3.299-10.682 5.364l0.233-0.14s0 0 0 4.354v0 0c-2.184 3.016-4.216 6.443-5.926 10.052l-0.169 0.397c-0.181 1.697-0.284 3.667-0.284 5.66s0.103 3.963 0.304 5.903l-0.020-0.243v8.707c0 5.224 0 8.707 0 13.061 9.644 19.926 20.374 37.065 32.706 52.896l-0.488-0.651-1.741 18.286 6.095 6.966 5.224-6.966s0-5.224 0 0l5.224-6.966 18.286-26.993z" />
<glyph unicode="&#xe942;" glyph-name="lock" horiz-adv-x="716" d="M357.863 938.667c-158.614-2.293-286.313-131.409-286.313-290.352 0-1.268 0.008-2.535 0.024-3.799l-0.002 0.192v-73.106c-41.050-8.599-71.455-44.442-71.573-87.408v-480.061c0.862-48.746 40.581-87.932 89.453-87.932 0.005 0 0.009 0 0.014 0h536.794c0.004 0 0.009 0 0.013 0 48.871 0 88.59 39.186 89.452 87.851l0.001 0.081v480.048c-0.118 42.979-30.523 78.822-70.99 87.319l-0.583 0.102v73.106c0.014 1.073 0.022 2.339 0.022 3.607 0 158.943-127.7 288.060-286.098 290.349l-0.215 0.002zM386.492 137.053c0-15.811-12.818-28.629-28.629-28.629s-28.629 12.818-28.629 28.629v0 114.516c0 15.811 12.818 28.629 28.629 28.629s28.629-12.818 28.629-28.629v0zM558.267 587.45h-400.807v57.258c-0.020 1.077-0.032 2.346-0.032 3.619 0 111.512 89.256 202.177 200.223 204.45l0.212 0.003c111.179-2.276 200.435-92.941 200.435-204.453 0-1.272-0.012-2.542-0.035-3.809l0.003 0.19z" />
<glyph unicode="&#xe943;" glyph-name="add" d="M512 938.157c-37.726 0-67.368-29.642-67.368-67.368v-377.263h-377.263c-37.726 0-67.368-29.642-67.368-67.368s29.642-67.368 67.368-67.368h377.263v-377.263c0-37.726 29.642-67.368 67.368-67.368s67.368 29.642 67.368 67.368v377.263h377.263c37.726 0 67.368 29.642 67.368 67.368s-29.642 67.368-67.368 67.368h-377.263v377.263c0 37.726-29.642 67.368-67.368 67.368z" />
<glyph unicode="&#xe944;" glyph-name="paste" d="M704 832h-128v64c0 35.2-28.8 64-64 64h-128c-35.204 0-64-28.8-64-64v-64h-128v-128h512v128zM512 832h-128v63.886c0.034 0.038 0.072 0.078 0.114 0.114h127.768c0.042-0.036 0.082-0.076 0.118-0.114v-63.886zM832 640v160c0 17.6-14.4 32-32 32h-64v-64h32v-128h-192l-192-192v-256h-256v576h32v64h-64c-17.602 0-32-14.4-32-32v-640c0-17.6 14.398-32 32-32h288v-192h640v704h-192zM576 549.49v-101.49h-101.49l101.49 101.49zM960 0h-512v384h192v192h320v-576z" />
<glyph unicode="&#xe945;" glyph-name="bucket" horiz-adv-x="1021" d="M974.725 792.381h-284.872v23.098c0 67.753-55.435 123.188-123.188 123.188h-110.869c-67.753 0-123.188-55.435-123.188-123.188v-23.098h-286.412c-26.177 0-46.195-20.018-46.195-46.195s20.018-46.195 46.195-46.195h90.851l1.54-585.143c0-110.869 89.311-200.18 200.18-200.18h343.386c110.869 0 200.18 89.311 200.18 200.18l1.54 585.143h90.851c26.177 0 46.195 20.018 46.195 46.195s-20.018 46.195-46.195 46.195zM424.998 815.479c0 16.938 13.859 30.797 30.797 30.797h110.869c16.938 0 30.797-13.859 30.797-30.797v-23.098h-172.463v23.098zM789.943 114.847c0-60.054-47.735-107.789-107.789-107.789h-343.386c-60.054 0-107.789 47.735-107.789 107.789l-1.54 585.143h560.505v-585.143zM418.839 558.324c-26.177 0-46.195-20.018-46.195-46.195v-306.43c0-26.177 20.018-46.195 46.195-46.195s46.195 20.018 46.195 46.195v306.43c0 24.638-21.558 46.195-46.195 46.195zM603.621 558.324c-26.177 0-46.195-20.018-46.195-46.195v-306.43c0-26.177 20.018-46.195 46.195-46.195s46.195 20.018 46.195 46.195v306.43c0 24.638-21.558 46.195-46.195 46.195z" />
<glyph unicode="&#xe946;" glyph-name="cat-others" d="M512 14.656c234.287 0 424.201 189.914 424.201 424.201s-189.914 424.201-424.201 424.201-424.201-189.914-424.201-424.201 189.914-424.201 424.201-424.201zM512-62.524c-276.859 0-501.381 224.521-501.381 501.381s224.521 501.381 501.381 501.381 501.381-224.521 501.381-501.381-224.521-501.381-501.381-501.381zM280.557 361.678c42.572 0 77.179 34.513 77.179 77.179s-34.513 77.179-77.179 77.179-77.179-34.513-77.179-77.179 34.607-77.179 77.179-77.179zM512 361.678c42.572 0 77.179 34.513 77.179 77.179s-34.513 77.179-77.179 77.179-77.179-34.513-77.179-77.179 34.607-77.179 77.179-77.179zM743.443 361.678c42.572 0 77.179 34.513 77.179 77.179s-34.513 77.179-77.179 77.179-77.179-34.513-77.179-77.179 34.513-77.179 77.179-77.179z" />
<glyph unicode="&#xe9c9;" glyph-name="sphere" d="M480 896c-265.096 0-480-214.904-480-480 0-265.098 214.904-480 480-480 265.098 0 480 214.902 480 480 0 265.096-214.902 480-480 480zM751.59 256c8.58 40.454 13.996 83.392 15.758 128h127.446c-3.336-44.196-13.624-87.114-30.68-128h-112.524zM208.41 576c-8.58-40.454-13.996-83.392-15.758-128h-127.444c3.336 44.194 13.622 87.114 30.678 128h112.524zM686.036 576c9.614-40.962 15.398-83.854 17.28-128h-191.316v128h174.036zM512 640v187.338c14.59-4.246 29.044-11.37 43.228-21.37 26.582-18.74 52.012-47.608 73.54-83.486 14.882-24.802 27.752-52.416 38.496-82.484h-155.264zM331.232 722.484c21.528 35.878 46.956 64.748 73.54 83.486 14.182 10 28.638 17.124 43.228 21.37v-187.34h-155.264c10.746 30.066 23.616 57.68 38.496 82.484zM448 576v-128h-191.314c1.88 44.146 7.666 87.038 17.278 128h174.036zM95.888 256c-17.056 40.886-27.342 83.804-30.678 128h127.444c1.762-44.608 7.178-87.546 15.758-128h-112.524zM256.686 384h191.314v-128h-174.036c-9.612 40.96-15.398 83.854-17.278 128zM448 192v-187.34c-14.588 4.246-29.044 11.372-43.228 21.37-26.584 18.74-52.014 47.61-73.54 83.486-14.882 24.804-27.75 52.418-38.498 82.484h155.266zM628.768 109.516c-21.528-35.876-46.958-64.746-73.54-83.486-14.184-9.998-28.638-17.124-43.228-21.37v187.34h155.266c-10.746-30.066-23.616-57.68-38.498-82.484zM512 256v128h191.314c-1.88-44.146-7.666-87.040-17.28-128h-174.034zM767.348 448c-1.762 44.608-7.178 87.546-15.758 128h112.524c17.056-40.886 27.344-83.806 30.68-128h-127.446zM830.658 640h-95.9c-18.638 58.762-44.376 110.294-75.316 151.428 42.536-20.34 81.058-47.616 114.714-81.272 21.48-21.478 40.362-44.938 56.502-70.156zM185.844 710.156c33.658 33.658 72.18 60.932 114.714 81.272-30.942-41.134-56.676-92.666-75.316-151.428h-95.898c16.138 25.218 35.022 48.678 56.5 70.156zM129.344 192h95.898c18.64-58.762 44.376-110.294 75.318-151.43-42.536 20.34-81.058 47.616-114.714 81.274-21.48 21.478-40.364 44.938-56.502 70.156zM774.156 121.844c-33.656-33.658-72.18-60.934-114.714-81.274 30.942 41.134 56.678 92.668 75.316 151.43h95.9c-16.14-25.218-35.022-48.678-56.502-70.156z" />
<glyph unicode="&#xea52;" glyph-name="checkbox-checked" d="M896 960h-768c-70.4 0-128-57.6-128-128v-768c0-70.4 57.6-128 128-128h768c70.4 0 128 57.6 128 128v768c0 70.4-57.6 128-128 128zM448 165.49l-237.254 237.256 90.51 90.508 146.744-146.744 306.746 306.746 90.508-90.51-397.254-397.256z" />
<glyph unicode="&#xea53;" glyph-name="checkbox-unchecked" d="M896 960h-768c-70.4 0-128-57.6-128-128v-768c0-70.4 57.6-128 128-128h768c70.4 0 128 57.6 128 128v768c0 70.4-57.6 128-128 128zM896 64h-768v768h768v-768z" />
<glyph unicode="&#xea54;" glyph-name="radio-checked" d="M512 960c-282.77 0-512-229.23-512-512s229.23-512 512-512 512 229.23 512 512-229.23 512-512 512zM512 64c-212.078 0-384 171.922-384 384s171.922 384 384 384c212.078 0 384-171.922 384-384s-171.922-384-384-384zM320 448c0 106.039 85.961 192 192 192s192-85.961 192-192c0-106.039-85.961-192-192-192s-192 85.961-192 192z" />
<glyph unicode="&#xea56;" glyph-name="radio-unchecked" d="M512 960c-282.77 0-512-229.23-512-512s229.23-512 512-512 512 229.23 512 512-229.23 512-512 512zM512 64c-212.078 0-384 171.922-384 384s171.922 384 384 384c212.078 0 384-171.922 384-384s-171.922-384-384-384z" />
</font>
</defs>
</svg>
